<svg width="332" height="44" viewBox="0 0 332 44" fill="none" xmlns="http://www.w3.org/2000/svg">
<rect x="2" y="2" width="328" height="40" rx="10" fill="#FF6A3D" stroke="url(#paint0_linear_360_190)" stroke-width="4"/>
<path d="M295 21C294.448 21 294 21.4477 294 22C294 22.5523 294.448 23 295 23V21ZM320.707 22.7071C321.098 22.3166 321.098 21.6834 320.707 21.2929L314.343 14.9289C313.953 14.5384 313.319 14.5384 312.929 14.9289C312.538 15.3195 312.538 15.9526 312.929 16.3431L318.586 22L312.929 27.6569C312.538 28.0474 312.538 28.6805 312.929 29.0711C313.319 29.4616 313.953 29.4616 314.343 29.0711L320.707 22.7071ZM295 22V23H320V22V21H295V22Z" fill="#33334D"/>
<defs>
<linearGradient id="paint0_linear_360_190" x1="2" y1="-28" x2="363" y2="36.5" gradientUnits="userSpaceOnUse">
<stop stop-color="#FF6A3D"/>
<stop offset="1" stop-color="#33334D"/>
</linearGradient>
</defs>
</svg>
