<svg width="25" height="25" viewBox="0 0 25 25" fill="none" xmlns="http://www.w3.org/2000/svg">
<path d="M12.3476 24.5084C11.9759 24.501 11.6599 24.3613 11.3974 24.1053C10.8619 23.5822 10.329 23.0562 9.79453 22.5319C8.86891 21.6241 7.94198 20.7177 7.01767 19.8086C6.1055 18.9115 5.19694 18.0106 4.28412 17.1138C3.24464 16.0926 2.20221 15.0743 1.16142 14.0543C0.987187 13.8837 0.810988 13.7143 0.642992 13.5378C0.0861757 12.9533 0.11505 12.125 0.695163 11.56C1.65852 10.6215 2.61433 9.6756 3.5744 8.7339C4.23621 8.08476 4.90229 7.43919 5.56247 6.78811C6.47332 5.88973 7.37958 4.9865 8.29011 4.0878C9.11172 3.27638 9.93661 2.46787 10.7599 1.65807C10.9646 1.45635 11.173 1.25786 11.3711 1.05032C11.9063 0.489758 12.7985 0.458077 13.3549 0.997299C13.9472 1.57111 14.528 2.15688 15.1146 2.73619C15.8942 3.50623 16.6771 4.27336 17.4538 5.04631C17.92 5.51021 18.3873 5.97314 18.8503 6.43994C19.0901 6.68175 19.3385 6.92033 19.5902 7.15309C20.0193 7.55039 20.4292 7.96806 20.8469 8.37733C21.548 9.06461 22.2492 9.75189 22.9501 10.4395C23.3527 10.8345 23.7658 11.2202 24.154 11.6288C24.6465 12.147 24.6524 13.0212 24.1202 13.5491C22.9032 14.7565 21.6747 15.9533 20.4518 17.1549C19.7591 17.8357 19.0681 18.5181 18.3758 19.1989C17.4627 20.0967 16.5482 20.9931 15.6357 21.8915C14.9086 22.6072 14.1805 23.322 13.4596 24.0432C13.1509 24.3519 12.7912 24.5194 12.3476 24.5077V24.5084ZM14.9834 12.5899C14.9834 12.5883 14.9834 12.5867 14.9834 12.5851C15.7377 12.5851 16.4921 12.5857 17.2467 12.5838C17.3081 12.5838 17.3921 12.6096 17.4216 12.5333C17.4508 12.4583 17.3892 12.4027 17.339 12.3526C16.8524 11.8664 16.368 11.3776 15.8778 10.895C14.8269 9.86019 13.7713 8.82991 12.7207 7.79479C12.4818 7.55944 12.342 7.55589 12.1042 7.79317C11.4355 8.45976 10.769 9.12829 10.0934 9.78778C9.58946 10.2798 9.08842 10.7751 8.58214 11.2651C8.22055 11.6149 7.87176 11.9793 7.50919 12.329C7.41404 12.4208 7.41994 12.4978 7.45177 12.599C7.49082 12.7228 7.6132 12.7661 7.69622 12.8476C8.47353 13.6124 9.25117 14.377 10.0291 15.1412C10.7412 15.8408 11.4538 16.54 12.1665 17.2389C12.3417 17.4109 12.4661 17.4119 12.6449 17.2464C12.6807 17.2131 12.7145 17.1778 12.7492 17.1432C13.4429 16.4556 14.1339 15.7654 14.8325 15.083C14.9338 14.9838 14.924 14.932 14.8298 14.8412C14.1227 14.1601 13.4243 13.4666 12.7215 12.781C12.6693 12.7302 12.6405 12.7302 12.6723 12.6572C12.7028 12.5873 12.7289 12.5915 12.8021 12.5912C13.5292 12.5886 14.2563 12.5896 14.9834 12.5896V12.5899Z" fill="#AEDDF8"/>
<path d="M12.3476 24.5084C11.9759 24.501 11.6599 24.3613 11.3974 24.1053C10.8619 23.5822 10.329 23.0562 9.79453 22.5319C8.86891 21.6241 7.94198 20.7177 7.01767 19.8086C6.1055 18.9115 5.19694 18.0106 4.28412 17.1138C3.24464 16.0926 2.20221 15.0743 1.16142 14.0543C0.987187 13.8837 0.810988 13.7143 0.642992 13.5378C0.0861757 12.9533 0.11505 12.125 0.695163 11.56C1.65852 10.6215 2.61433 9.6756 3.5744 8.7339C4.23621 8.08476 4.90229 7.43919 5.56247 6.78811C6.47332 5.88973 7.37958 4.9865 8.29011 4.0878C9.11172 3.27638 9.93661 2.46787 10.7599 1.65807C10.9646 1.45635 11.173 1.25786 11.3711 1.05032C11.9063 0.489758 12.7985 0.458077 13.3549 0.997299C13.9472 1.57111 14.528 2.15688 15.1146 2.73619C15.8942 3.50623 16.6771 4.27336 17.4538 5.04631C17.92 5.51021 18.3873 5.97314 18.8503 6.43994C19.0901 6.68175 19.3385 6.92033 19.5902 7.15309C20.0193 7.55039 20.4292 7.96806 20.8469 8.37733C21.548 9.06461 22.2492 9.75189 22.9501 10.4395C23.3527 10.8345 23.7658 11.2202 24.154 11.6288C24.6465 12.147 24.6524 13.0212 24.1202 13.5491C22.9032 14.7565 21.6747 15.9533 20.4518 17.1549C19.7591 17.8357 19.0681 18.5181 18.3758 19.1989C17.4627 20.0967 16.5482 20.9931 15.6357 21.8915C14.9086 22.6072 14.1805 23.322 13.4596 24.0432C13.1509 24.3519 12.7912 24.5194 12.3476 24.5077V24.5084ZM7.25162 14.2771C7.25096 14.4146 7.25096 14.5277 7.25162 14.6537C7.25162 14.7332 7.25162 14.8124 7.25195 14.892C7.25096 14.948 7.25096 14.9803 7.25162 15.0413C7.25162 15.1422 7.25162 15.243 7.25162 15.3436C7.25096 15.4814 7.25195 15.5622 7.25162 15.6882C7.25162 15.7347 7.25129 15.7813 7.25096 15.8278C7.25162 15.9986 7.25096 16.0956 7.25096 16.2377C7.25096 16.2736 7.25096 16.3095 7.25096 16.3454C7.25096 16.4997 7.25424 16.6367 7.25096 16.8196C7.24768 17.0026 7.24998 17.1859 7.23882 17.3686C7.2421 17.4857 7.26999 17.5247 7.39468 17.5244C8.79935 17.5211 10.2044 17.5241 11.609 17.5234C11.6592 17.5234 11.7173 17.5454 11.7137 17.5383C10.2339 16.057 8.7544 14.5758 7.25096 13.0713V14.2771H7.25162ZM12.9609 17.5244C13.0606 17.5244 13.1082 17.5244 13.1561 17.5244C14.2438 17.5231 15.3319 17.5218 16.4196 17.5211C16.8405 17.5211 17.2615 17.5218 17.6822 17.5241C17.7255 17.5241 17.7852 17.5017 17.7904 17.5822C17.7954 17.6598 17.7494 17.6715 17.6881 17.6708C17.6553 17.6705 17.6224 17.6715 17.5896 17.6715C15.9444 17.6728 14.2989 17.6744 12.6538 17.675C10.8498 17.6757 9.04609 17.6689 7.2421 17.6786C6.74828 17.6812 6.34306 17.8803 6.08844 18.3242C6.03692 18.414 6.02544 18.4855 6.11994 18.5443C6.2548 18.6287 6.34667 18.7573 6.45724 18.865C7.46325 19.8452 8.4627 20.8321 9.46379 21.8171C10.1712 22.5135 10.8767 23.2111 11.5857 23.9058C11.7888 24.1049 12.0339 24.2246 12.324 24.243C12.7798 24.2721 13.0984 24.0367 13.4005 23.7338C14.3695 22.7627 15.3486 21.8013 16.3264 20.8386C17.4508 19.731 18.5783 18.6264 19.7037 17.5198C21.0962 16.1511 22.4802 14.774 23.8846 13.4172C24.3151 13.0014 24.3384 12.1629 23.918 11.7704C23.2838 11.1782 22.6725 10.5617 22.0524 9.95491C21.3387 9.25696 20.6231 8.56095 19.9163 7.85653C19.8116 7.75212 19.7126 7.70847 19.5665 7.7088C17.5112 7.71203 15.4556 7.70944 13.4002 7.71074C13.2627 7.71074 13.1226 7.70039 12.9491 7.73951C13.4291 8.20696 13.8868 8.65211 14.3442 9.09823C15.5012 10.2258 16.6578 11.354 17.8154 12.4813C17.9076 12.5712 17.9109 12.6433 17.8144 12.738C16.5114 14.0207 15.2111 15.3061 13.9101 16.5904C13.6063 16.8904 13.3018 17.1891 12.9609 17.5247V17.5244ZM14.9834 12.5899C14.9834 12.5883 14.9911 12.5912 14.9911 12.5896C15.7454 12.5896 16.4921 12.5857 17.2467 12.5838C17.3081 12.5838 17.3864 12.5881 17.4216 12.5333C17.4508 12.4583 17.3892 12.4027 17.339 12.3526C16.8524 11.8664 16.368 11.3776 15.8778 10.895C14.8269 9.86019 13.7713 8.82991 12.7207 7.79479C12.4818 7.55944 12.342 7.55589 12.1042 7.79317C11.4355 8.45976 10.769 9.12829 10.0934 9.78778C9.58946 10.2798 9.08842 10.7751 8.58214 11.2651C8.22055 11.6149 7.87176 11.9793 7.50919 12.329C7.41404 12.4208 7.41994 12.4978 7.45177 12.599C7.49082 12.7228 7.6132 12.7661 7.69622 12.8476C8.47353 13.6124 9.25117 14.377 10.0291 15.1412C10.7412 15.8408 11.4538 16.54 12.1665 17.2389C12.3417 17.4109 12.4661 17.4119 12.6449 17.2464C12.6807 17.2131 12.7145 17.1778 12.7492 17.1432C13.4429 16.4556 14.1339 15.7654 14.8325 15.083C14.9338 14.9838 14.924 14.932 14.8298 14.8412C14.1227 14.1601 13.4199 13.4747 12.7171 12.7891C12.6649 12.7383 12.5436 12.6136 12.5516 12.5937C12.5718 12.5869 12.7289 12.5915 12.8021 12.5912C13.5292 12.5886 14.2563 12.5896 14.9834 12.5896V12.5899ZM12.7407 12.696C12.7775 12.7425 12.7971 12.7617 12.8148 12.7789C13.5212 13.4668 14.2274 14.1497 14.9305 14.8412C15.0178 14.9269 15.052 14.8774 15.1058 14.8241C15.6452 14.2907 16.1843 13.7566 16.7247 13.2239C16.896 13.0551 17.0709 12.8893 17.2714 12.696H12.7407Z" fill="#FF6A3D"/>
<path d="M14.6349 5.42725C13.9436 5.75861 13.2519 6.09029 12.5606 6.42165C12.4254 6.4863 12.2961 6.49083 12.154 6.42197C11.5372 6.12326 10.9157 5.83296 10.2969 5.53846C10.2532 5.51777 10.2148 5.48641 10.1738 5.4599C10.3116 5.22036 10.4468 4.9792 10.5922 4.74353C11.0276 4.0375 11.4656 3.33341 11.9099 2.63287C12.0024 2.48675 12.0956 2.34031 12.2088 2.20841C12.3286 2.06908 12.493 2.08136 12.5779 2.24138C12.7735 2.60895 13.035 2.93545 13.2434 3.29526C13.3533 3.48502 13.4714 3.67058 13.5895 3.85549C13.8389 4.24504 14.0765 4.6417 14.3294 5.02898C14.4216 5.16993 14.4823 5.33156 14.6346 5.42661L14.6349 5.42725Z" fill="#E66831"/>
<path d="M14.6354 5.42853C14.49 5.41107 14.4083 5.32023 14.3401 5.2003C14.1238 4.82077 13.8807 4.45741 13.6359 4.09502C13.5185 3.9211 13.4207 3.73393 13.3154 3.55192C13.126 3.22509 12.9298 2.90279 12.6975 2.60246C12.6316 2.51744 12.5833 2.41917 12.5276 2.32671C12.4406 2.18318 12.3536 2.17057 12.25 2.29988C12.1555 2.41788 12.0698 2.54363 11.9894 2.67197C11.4992 3.45429 11.0116 4.23823 10.5244 5.0225C10.4932 5.0726 10.4709 5.12853 10.4502 5.18381C10.4007 5.31829 10.3147 5.41592 10.1743 5.46183C10.0713 5.40849 10.1326 5.34124 10.1658 5.28596C10.3426 4.98888 10.5211 4.69243 10.7035 4.3989C11.1974 3.60461 11.6938 2.81195 12.1893 2.01863C12.2037 1.99568 12.2181 1.97273 12.2336 1.95074C12.3343 1.80624 12.3717 1.80333 12.4652 1.94816C12.7087 2.3251 12.9502 2.70333 13.189 3.08317C13.6376 3.79729 14.0841 4.51269 14.5301 5.22842C14.5698 5.29243 14.6003 5.36193 14.6354 5.42885V5.42853Z" fill="#FF7C42"/>
<path d="M10.119 19.6954C10.8103 19.3641 11.502 19.0324 12.1933 18.701C12.3285 18.6364 12.4578 18.6319 12.5999 18.7007C13.2167 18.9994 13.8382 19.2897 14.457 19.5842C14.5007 19.6049 14.5391 19.6363 14.5801 19.6628C14.4423 19.9023 14.3071 20.1435 14.1617 20.3792C13.7263 21.0852 13.2883 21.7893 12.844 22.4898C12.7515 22.6359 12.6583 22.7824 12.5451 22.9143C12.4253 23.0536 12.2609 23.0413 12.176 22.8813C11.9804 22.5137 11.7189 22.1872 11.5105 21.8274C11.4006 21.6377 11.2825 21.4521 11.1644 21.2672C10.915 20.8776 10.6774 20.481 10.4245 20.0937C10.3323 19.9528 10.2716 19.7911 10.1193 19.6961L10.119 19.6954Z" fill="#A3CEE7"/>
<path d="M10.1185 19.6961C10.2639 19.7136 10.3456 19.8044 10.4138 19.9243C10.6301 20.3039 10.8732 20.6672 11.118 21.0296C11.2354 21.2035 11.3332 21.3907 11.4385 21.5727C11.6279 21.8995 11.8241 22.2218 12.0564 22.5222C12.1223 22.6072 12.1706 22.7055 12.2264 22.7979C12.3133 22.9415 12.4003 22.9541 12.5039 22.8248C12.5984 22.7068 12.6841 22.581 12.7645 22.4527C13.2547 21.6703 13.7423 20.8864 14.2295 20.1021C14.2607 20.052 14.283 19.9961 14.3037 19.9408C14.3532 19.8063 14.4392 19.7087 14.5796 19.6628C14.6826 19.7161 14.6213 19.7834 14.5881 19.8387C14.4113 20.1358 14.2328 20.4322 14.0504 20.7257C13.5565 21.52 13.0601 22.3127 12.5646 23.106C12.5502 23.129 12.5358 23.1519 12.5203 23.1739C12.4196 23.3184 12.3822 23.3213 12.2887 23.1765C12.0452 22.7995 11.8037 22.4213 11.5649 22.0415C11.1163 21.3273 10.6698 20.6119 10.2238 19.8962C10.1841 19.8322 10.1536 19.7627 10.1185 19.6958L10.1185 19.6961Z" fill="#97CAE7"/>
<path d="M5.13055 10.333C5.46687 11.0141 5.80352 11.6956 6.13984 12.3767C6.20547 12.5099 6.21006 12.6373 6.14017 12.7773C5.83699 13.385 5.54234 13.9973 5.24342 14.607C5.22243 14.65 5.1906 14.6878 5.16369 14.7282C4.92056 14.5924 4.67578 14.4592 4.43658 14.316C3.71997 13.8871 3.00533 13.4555 2.2943 13.0178C2.14599 12.9266 1.99735 12.8348 1.86348 12.7233C1.72206 12.6053 1.73453 12.4433 1.89695 12.3596C2.27002 12.1669 2.60142 11.9093 2.96661 11.704C3.15922 11.5957 3.34756 11.4793 3.53524 11.3629C3.93062 11.1172 4.33322 10.8832 4.72631 10.6339C4.86937 10.5431 5.03343 10.4833 5.1299 10.3333L5.13055 10.333Z" fill="#E66831"/>
<path d="M5.12962 10.3332C5.1119 10.4764 5.0197 10.5569 4.89797 10.6241C4.51276 10.8372 4.14396 11.0767 3.77613 11.3179C3.59961 11.4336 3.40963 11.5299 3.2249 11.6337C2.89317 11.8202 2.56604 12.0136 2.26121 12.2424C2.17492 12.3074 2.07517 12.3549 1.98133 12.4099C1.83564 12.4956 1.82285 12.5812 1.9541 12.6834C2.07386 12.7765 2.2015 12.8609 2.33176 12.9401C3.12581 13.423 3.92149 13.9034 4.71751 14.3835C4.76836 14.4142 4.82513 14.4362 4.88124 14.4565C5.01773 14.5053 5.11683 14.59 5.16342 14.7284C5.10928 14.8299 5.04103 14.7695 4.98492 14.7368C4.68338 14.5626 4.3825 14.3867 4.08457 14.207C3.27838 13.7204 2.47383 13.2313 1.66863 12.7432C1.64534 12.729 1.62204 12.7147 1.59973 12.6995C1.45306 12.6003 1.45011 12.5634 1.5971 12.4713C1.97969 12.2314 2.36359 11.9935 2.74913 11.7582C3.47394 11.3162 4.20006 10.8763 4.92652 10.4369C4.99148 10.3978 5.06203 10.3678 5.12995 10.3332L5.12962 10.3332Z" fill="#FF7C42"/>
<path d="M19.6761 14.7935C19.3398 14.1124 19.0031 13.4309 18.6668 12.7498C18.6012 12.6166 18.5966 12.4892 18.6665 12.3492C18.9696 11.7415 19.2643 11.1292 19.5632 10.5195C19.5842 10.4765 19.616 10.4387 19.6429 10.3983C19.8861 10.534 20.1309 10.6672 20.3701 10.8104C21.0867 11.2394 21.8013 11.671 22.5123 12.1087C22.6606 12.1999 22.8093 12.2917 22.9432 12.4032C23.0846 12.5212 23.0721 12.6832 22.9097 12.7669C22.5366 12.9596 22.2052 13.2172 21.84 13.4225C21.6474 13.5308 21.4591 13.6472 21.2714 13.7635C20.876 14.0092 20.4734 14.2433 20.0803 14.4925C19.9373 14.5834 19.7732 14.6432 19.6767 14.7932L19.6761 14.7935Z" fill="#A3CEE7"/>
<path d="M19.677 14.7915C19.6947 14.6483 19.7869 14.5678 19.9087 14.5006C20.2939 14.2875 20.6627 14.048 21.0305 13.8068C21.207 13.6911 21.397 13.5948 21.5817 13.491C21.9135 13.3045 22.2406 13.1111 22.5454 12.8823C22.6317 12.8173 22.7315 12.7698 22.8253 12.7148C22.971 12.6291 22.9838 12.5435 22.8525 12.4413C22.7328 12.3482 22.6051 12.2638 22.4749 12.1846C21.6808 11.7017 20.8851 11.2213 20.0891 10.7412C20.0383 10.7105 19.9815 10.6885 19.9254 10.6682C19.7889 10.6193 19.6898 10.5346 19.6432 10.3963C19.6974 10.2948 19.7656 10.3552 19.8217 10.3879C20.1233 10.5621 20.4241 10.738 20.7221 10.9177C21.5283 11.4043 22.3328 11.8934 23.138 12.3815C23.1613 12.3957 23.1846 12.41 23.2069 12.4252C23.3536 12.5244 23.3565 12.5613 23.2095 12.6534C22.827 12.8933 22.4431 13.1312 22.0575 13.3665C21.3327 13.8084 20.6066 14.2484 19.8801 14.6878C19.8152 14.7269 19.7446 14.7569 19.6767 14.7915L19.677 14.7915Z" fill="#97CAE7"/>
</svg>
