<svg width="159" height="40" viewBox="0 0 159 40" fill="none" xmlns="http://www.w3.org/2000/svg">
<rect width="159" height="40" rx="10" fill="#AEDDF8"/>
<mask id="mask0_363_192" style="mask-type:alpha" maskUnits="userSpaceOnUse" x="0" y="0" width="159" height="40">
<rect width="159" height="40" rx="10" fill="#AEDDF8"/>
</mask>
<g mask="url(#mask0_363_192)">
<path d="M44.3409 103C42.6107 102.965 41.1401 102.304 39.9184 101.094C37.4261 98.6205 34.9461 96.1335 32.4584 93.6541C28.1504 89.3618 23.8363 85.0756 19.5344 80.7772C15.289 76.5353 11.0604 72.275 6.8119 68.0347C1.97397 63.2058 -2.8777 58.3907 -7.72173 53.568C-8.53263 52.7609 -9.35269 51.9599 -10.1346 51.1253C-12.7261 48.3616 -12.5917 44.4453 -9.89177 41.7733C-5.40814 37.3357 -0.959629 32.863 3.50873 28.4102C6.58894 25.3408 9.689 22.2882 12.7616 19.2096C17.0009 14.9616 21.2188 10.6906 25.4565 6.44112C29.2804 2.60432 33.1196 -1.21872 36.9512 -5.04787C37.9041 -6.00172 38.8738 -6.94028 39.7962 -7.92165C42.287 -10.5722 46.4392 -10.7221 49.0292 -8.17234C51.7857 -5.45907 54.4887 -2.68924 57.2192 0.0500231C60.8476 3.69116 64.4913 7.31854 68.106 10.9734C70.2761 13.167 72.4507 15.3559 74.6054 17.5632C75.7218 18.7066 76.8778 19.8348 78.0491 20.9353C80.0466 22.814 81.954 24.789 83.898 26.7242C87.1614 29.974 90.4249 33.2238 93.6868 36.4751C95.5606 38.3431 97.4833 40.1667 99.2899 42.0989C101.582 44.5492 101.61 48.6826 99.1326 51.1788C93.4685 56.8881 87.7509 62.547 82.0593 68.2288C78.8356 71.4481 75.6195 74.675 72.3972 77.8942C68.1472 82.1391 63.8912 86.378 59.6442 90.6259C56.2601 94.0103 52.8714 97.39 49.5163 100.8C48.0793 102.26 46.4056 103.052 44.3409 102.997V103ZM56.6083 46.6434C56.6083 46.6358 56.6083 46.6281 56.6083 46.6205C60.1192 46.6205 63.63 46.6235 67.1424 46.6144C67.428 46.6144 67.8189 46.7367 67.9564 46.3759C68.0923 46.0213 67.8052 45.7584 67.5715 45.5214C65.3068 43.2224 63.0528 40.9112 60.7712 38.6289C55.8799 33.7359 50.9671 28.8642 46.0773 23.9696C44.9655 22.8568 44.315 22.84 43.2078 23.962C40.0955 27.114 36.9939 30.2751 33.8496 33.3935C31.5039 35.72 29.172 38.0618 26.8157 40.3792C25.1328 42.0331 23.5095 43.7559 21.822 45.4098C21.3791 45.844 21.4066 46.2078 21.5547 46.6862C21.7365 47.2717 22.3061 47.4765 22.6924 47.8617C26.3102 51.4784 29.9295 55.0935 33.5503 58.7072C36.8641 62.0151 40.1811 65.3214 43.498 68.6263C44.3134 69.4395 44.8922 69.4441 45.7245 68.6614C45.891 68.504 46.0483 68.3374 46.2101 68.1738C49.4385 64.9225 52.6546 61.6589 55.9058 58.432C56.3777 57.9627 56.3319 57.7182 55.8936 57.2886C52.6027 54.0678 49.352 50.789 46.0809 47.5468C45.8381 47.3068 45.704 47.3069 45.8521 46.9614C45.9942 46.6312 46.1155 46.6511 46.456 46.6495C49.8401 46.6373 53.2242 46.6419 56.6083 46.6419V46.6434Z" fill="#AEDDF8"/>
<path d="M44.3409 103C42.6107 102.965 41.1401 102.304 39.9184 101.094C37.4261 98.6205 34.9461 96.1335 32.4584 93.6541C28.1504 89.3618 23.8363 85.0756 19.5344 80.7772C15.289 76.5353 11.0604 72.275 6.8119 68.0347C1.97397 63.2058 -2.8777 58.3907 -7.72173 53.568C-8.53263 52.7609 -9.35269 51.9599 -10.1346 51.1253C-12.7261 48.3616 -12.5917 44.4453 -9.89177 41.7733C-5.40814 37.3357 -0.959629 32.863 3.50873 28.4102C6.58894 25.3408 9.689 22.2882 12.7616 19.2096C17.0009 14.9616 21.2188 10.6906 25.4565 6.44112C29.2804 2.60432 33.1196 -1.21872 36.9512 -5.04787C37.9041 -6.00172 38.8738 -6.94028 39.7962 -7.92165C42.287 -10.5722 46.4392 -10.7221 49.0292 -8.17234C51.7857 -5.45907 54.4887 -2.68924 57.2192 0.0500231C60.8476 3.69116 64.4913 7.31854 68.106 10.9734C70.2761 13.167 72.4507 15.3559 74.6054 17.5632C75.7218 18.7066 76.8778 19.8348 78.0491 20.9353C80.0466 22.814 81.954 24.789 83.898 26.7242C87.1614 29.974 90.4249 33.2238 93.6868 36.4751C95.5606 38.3431 97.4833 40.1667 99.2899 42.0989C101.582 44.5492 101.61 48.6826 99.1326 51.1788C93.4685 56.8881 87.7509 62.547 82.0593 68.2288C78.8356 71.4481 75.6195 74.675 72.3972 77.8942C68.1472 82.1391 63.8912 86.378 59.6442 90.6259C56.2601 94.0103 52.8714 97.39 49.5163 100.8C48.0793 102.26 46.4056 103.052 44.3409 102.997V103ZM20.6232 54.6212C20.6201 55.2714 20.6201 55.8064 20.6232 56.402C20.6232 56.7781 20.6232 57.1526 20.6247 57.5286C20.6201 57.7936 20.6201 57.9465 20.6232 58.2348C20.6232 58.7117 20.6232 59.1887 20.6232 59.6641C20.6201 60.3158 20.6247 60.698 20.6232 61.2936C20.6232 61.5137 20.6217 61.7338 20.6201 61.9539C20.6232 62.7616 20.6201 63.2201 20.6201 63.8922C20.6201 64.0619 20.6201 64.2315 20.6201 64.4012C20.6201 65.1309 20.6354 65.7785 20.6201 66.6437C20.6049 67.5089 20.6156 68.3756 20.5636 69.2392C20.5789 69.7931 20.7087 69.9776 21.289 69.976C27.8266 69.9607 34.3658 69.9745 40.9034 69.9715C41.137 69.9715 41.4073 70.0754 41.3905 70.0418C34.5032 63.0377 27.6174 56.0336 20.6201 48.9195V54.6212H20.6232ZM47.1951 69.976C47.6594 69.976 47.8808 69.976 48.1038 69.976C53.1662 69.9699 58.2301 69.9638 63.2925 69.9607C65.2518 69.9607 67.2111 69.9638 69.1689 69.9745C69.3705 69.9745 69.6484 69.869 69.6728 70.2497C69.6957 70.6165 69.4819 70.6715 69.1964 70.6685C69.0437 70.667 68.8909 70.6715 68.7382 70.6715C61.0812 70.6777 53.4227 70.6853 45.7657 70.6884C37.3696 70.6914 28.975 70.6593 20.5789 70.7052C18.2806 70.7174 16.3946 71.659 15.2095 73.7578C14.9698 74.1827 14.9163 74.5206 15.3561 74.7988C15.9838 75.1977 16.4114 75.8061 16.926 76.3152C21.6082 80.9499 26.2598 85.6167 30.9191 90.2744C34.2115 93.567 37.4948 96.8657 40.795 100.151C41.7402 101.092 42.881 101.658 44.231 101.745C46.3522 101.883 47.835 100.77 49.2415 99.3375C53.7511 94.7455 58.308 90.1995 62.8588 85.6473C68.0923 80.4103 73.3395 75.187 78.5775 69.9546C85.0586 63.4825 91.5 56.9707 98.0361 50.5551C100.04 48.5893 100.148 44.6241 98.1919 42.7684C95.2399 39.968 92.3949 37.053 89.5086 34.1838C86.1871 30.8835 82.8565 27.5924 79.5671 24.2616C79.0799 23.7678 78.6187 23.5615 77.9391 23.563C68.3733 23.5783 58.8058 23.5661 49.2399 23.5722C48.6001 23.5722 47.948 23.5233 47.1401 23.7082C49.3743 25.9186 51.5047 28.0235 53.6335 30.133C59.0181 35.4647 64.4012 40.7996 69.7889 46.1298C70.218 46.5548 70.2333 46.8956 69.7843 47.3435C63.7201 53.409 57.6681 59.4867 51.6131 65.5599C50.199 66.9784 48.7818 68.3909 47.1951 69.9776V69.976ZM56.6083 46.6434C56.6083 46.6358 56.6442 46.6495 56.6442 46.6419C60.155 46.6419 63.63 46.6235 67.1424 46.6144C67.428 46.6144 67.7922 46.6348 67.9564 46.3759C68.0923 46.0213 67.8052 45.7584 67.5715 45.5214C65.3068 43.2224 63.0528 40.9112 60.7712 38.6289C55.8799 33.7359 50.9671 28.8642 46.0773 23.9696C44.9655 22.8568 44.315 22.84 43.2078 23.962C40.0955 27.114 36.9939 30.2751 33.8496 33.3935C31.5039 35.72 29.172 38.0618 26.8157 40.3792C25.1328 42.0331 23.5095 43.7559 21.822 45.4098C21.3791 45.844 21.4066 46.2078 21.5547 46.6862C21.7365 47.2717 22.3061 47.4765 22.6924 47.8617C26.3102 51.4784 29.9295 55.0935 33.5503 58.7072C36.8641 62.0151 40.1811 65.3214 43.498 68.6263C44.3134 69.4395 44.8922 69.4441 45.7245 68.6614C45.891 68.504 46.0483 68.3374 46.2101 68.1738C49.4385 64.9225 52.6546 61.6589 55.9058 58.432C56.3777 57.9627 56.3319 57.7182 55.8936 57.2886C52.6027 54.0678 49.3316 50.8272 46.0605 47.585C45.8177 47.345 45.2533 46.7556 45.2904 46.6613C45.3842 46.6293 46.1155 46.6511 46.456 46.6495C49.8401 46.6373 53.2242 46.6419 56.6083 46.6419V46.6434ZM46.1704 47.1448C46.3415 47.3649 46.4327 47.4558 46.5152 47.5368C49.8031 50.7897 53.0897 54.0189 56.3623 57.2886C56.7685 57.6937 56.9275 57.4598 57.1779 57.2076C59.6885 54.6854 62.1976 52.1602 64.7127 49.641C65.5099 48.8431 66.3239 48.0589 67.2569 47.1448H46.1704Z" fill="#FF6A3D"/>
<path d="M54.9913 12.7725C51.7736 14.3393 48.5545 15.9077 45.3368 17.4745C44.7076 17.7802 44.1059 17.8016 43.4447 17.476C40.5737 16.0636 37.6813 14.6909 34.8012 13.2983C34.5981 13.2005 34.4194 13.0522 34.2285 12.9269C34.8699 11.7942 35.4991 10.6539 36.1756 9.53951C38.2021 6.20104 40.2408 2.87174 42.3085 -0.440748C42.7392 -1.13168 43.1729 -1.82414 43.6997 -2.44781C44.2571 -3.10663 45.0222 -3.04855 45.4177 -2.29189C46.3279 -0.553864 47.545 0.990024 48.5147 2.69136C49.0263 3.58865 49.5761 4.46607 50.1259 5.34043C51.2865 7.1824 52.3921 9.058 53.5695 10.8893C53.9986 11.5557 54.2812 12.32 54.9897 12.7695L54.9913 12.7725Z" fill="#E66831"/>
<path d="M54.9914 12.774C54.3149 12.6914 53.9346 12.2619 53.617 11.6948C52.6106 9.9002 51.479 8.18205 50.3398 6.46849C49.7931 5.6461 49.338 4.76104 48.8478 3.90043C47.9667 2.35501 47.0534 0.830995 45.9722 -0.589079C45.6653 -0.991102 45.4408 -1.4558 45.1812 -1.89298C44.7765 -2.57168 44.3718 -2.63129 43.8892 -2.01985C43.4494 -1.46191 43.0508 -0.867283 42.6767 -0.260427C40.3952 3.4388 38.1259 7.14566 35.8581 10.8541C35.713 11.091 35.6092 11.3554 35.513 11.6168C35.2824 12.2527 34.8823 12.7144 34.2287 12.9314C33.7491 12.6792 34.0347 12.3613 34.189 12.0999C35.0121 10.6951 35.8428 9.29335 36.6919 7.90537C38.9902 4.14959 41.3008 0.401457 43.6067 -3.34974C43.6739 -3.45827 43.7411 -3.5668 43.8129 -3.67074C44.2817 -4.35403 44.4558 -4.36779 44.891 -3.68297C46.0242 -1.90062 47.1481 -0.112153 48.2599 1.68396C50.3474 5.06064 52.4259 8.44344 54.5012 11.8278C54.686 12.1304 54.828 12.4591 54.9914 12.7755V12.774Z" fill="#FF7C42"/>
<path d="M10.7469 35.9782C12.3122 39.199 13.8791 42.4213 15.4444 45.642C15.7498 46.2718 15.7712 46.8741 15.4459 47.536C14.0348 50.4098 12.6635 53.3049 11.2723 56.1879C11.1745 56.3912 11.0264 56.57 10.9012 56.7611C9.76958 56.1191 8.63035 55.4893 7.51707 54.8121C4.18184 52.7837 0.855764 50.743 -2.45351 48.6733C-3.14377 48.2422 -3.83556 47.8081 -4.45862 47.2807C-5.11681 46.7228 -5.05878 45.9569 -4.30286 45.561C-2.56652 44.65 -1.02413 43.4317 0.675562 42.461C1.57198 41.9489 2.44855 41.3986 3.32207 40.8483C5.16225 39.6866 7.03603 38.5799 8.86552 37.4013C9.53135 36.9718 10.2949 36.689 10.7439 35.9797L10.7469 35.9782Z" fill="#E66831"/>
<path d="M10.7483 35.9784C10.6658 36.6556 10.2367 37.0362 9.67011 37.3542C7.87727 38.3615 6.16078 39.4942 4.44888 40.6345C3.62729 41.1818 2.74308 41.6373 1.88331 42.128C0.339393 43.01 -1.18315 43.9241 -2.60185 45.0064C-3.00348 45.3136 -3.46772 45.5383 -3.90448 45.7982C-4.58252 46.2033 -4.64208 46.6083 -4.03123 47.0914C-3.47383 47.5316 -2.87978 47.9306 -2.27351 48.3051C1.42212 50.5888 5.12539 52.8603 8.83019 55.1303C9.0669 55.2755 9.33109 55.3795 9.59223 55.4758C10.2275 55.7066 10.6887 56.1071 10.9056 56.7613C10.6536 57.2413 10.3359 56.9555 10.0748 56.8011C8.67137 55.9771 7.271 55.1456 5.88437 54.2957C2.13223 51.9951 -1.61227 49.6824 -5.35983 47.3742C-5.46826 47.3069 -5.57668 47.2396 -5.68052 47.1678C-6.36315 46.6985 -6.37689 46.5243 -5.69274 46.0886C-3.91212 44.9544 -2.12538 43.8293 -0.331013 42.7165C3.0424 40.6269 6.42192 38.5465 9.80297 36.4691C10.1053 36.2841 10.4337 36.142 10.7498 35.9784L10.7483 35.9784Z" fill="#FF7C42"/>
<path d="M78.4523 57.0628C76.887 53.842 75.3202 50.6197 73.7549 47.399C73.4494 46.7692 73.428 46.1669 73.7533 45.505C75.1644 42.6313 76.5357 39.7361 77.927 36.8531C78.0247 36.6498 78.1728 36.471 78.298 36.2799C79.4296 36.9219 80.5689 37.5517 81.6821 38.2289C85.0174 40.2573 88.3435 42.298 91.6527 44.3677C92.343 44.7988 93.0348 45.2329 93.6578 45.7603C94.316 46.3183 94.258 47.0841 93.5021 47.48C91.7657 48.391 90.2233 49.6093 88.5237 50.58C87.6272 51.0921 86.7507 51.6424 85.8772 52.1927C84.037 53.3544 82.1632 54.4611 80.3337 55.6397C79.6679 56.0692 78.9043 56.352 78.4553 57.0613L78.4523 57.0628Z" fill="#A3CEE7"/>
<path d="M78.4529 57.0625C78.5354 56.3853 78.9645 56.0047 79.5311 55.6867C81.3239 54.6794 83.0404 53.5467 84.7523 52.4064C85.5739 51.8591 86.4581 51.4036 87.3179 50.9129C88.8618 50.0309 90.3843 49.1168 91.803 48.0345C92.2047 47.7273 92.6689 47.5026 93.1057 47.2427C93.7837 46.8376 93.8433 46.4326 93.2324 45.9495C92.675 45.5093 92.081 45.1103 91.4747 44.7358C87.779 42.4521 84.0758 40.1806 80.371 37.9106C80.1343 37.7654 79.8701 37.6614 79.6089 37.5651C78.9737 37.3343 78.5125 36.9338 78.2956 36.2796C78.5476 35.7996 78.8652 36.0854 79.1264 36.2398C80.5298 37.0637 81.9302 37.8953 83.3168 38.7452C87.0689 41.0458 90.8134 43.3585 94.561 45.6667C94.6694 45.734 94.7779 45.8012 94.8817 45.8731C95.5643 46.3424 95.5781 46.5166 94.8939 46.9523C93.1133 48.0865 91.3266 49.2116 89.5322 50.3244C86.1588 52.414 82.7792 54.4944 79.3982 56.5718C79.0958 56.7568 78.7675 56.8989 78.4514 57.0625L78.4529 57.0625Z" fill="#97CAE7"/>
</g>
</svg>
