<svg width="159" height="40" viewBox="0 0 159 40" fill="none" xmlns="http://www.w3.org/2000/svg">
<rect width="159" height="40" rx="10" fill="#AEDDF8"/>
<mask id="mask0_363_191" style="mask-type:alpha" maskUnits="userSpaceOnUse" x="0" y="0" width="159" height="40">
<rect width="159" height="40" rx="10" fill="#AEDDF8"/>
</mask>
<g mask="url(#mask0_363_191)">
<path d="M12.5199 37.0167C11.7617 37.0167 11.1348 37.6456 11.1348 38.406C11.1348 39.1664 11.7617 39.7953 12.5199 39.7953C13.278 39.7953 13.905 39.1664 13.905 38.406C13.905 37.6456 13.278 37.0167 12.5199 37.0167Z" fill="#FF6A3D" fill-opacity="0.7"/>
<path d="M14.8205 37.0332C15.6079 37.0332 16.2348 36.3898 16.2348 35.6147C16.2348 34.8396 15.5933 34.1962 14.8205 34.1962C14.0478 34.1962 13.4062 34.8396 13.4062 35.6147C13.4062 36.3898 14.0478 37.0332 14.8205 37.0332Z" fill="#FF6A3D" fill-opacity="0.7"/>
<path d="M17.452 31.6587C16.6355 31.6587 15.9648 32.3314 15.9648 33.1503C15.9648 33.9693 16.6355 34.642 17.452 34.642C18.2685 34.642 18.9392 33.9693 18.9392 33.1503C18.9392 32.3314 18.2685 31.6587 17.452 31.6587Z" fill="#FF6A3D" fill-opacity="0.7"/>
<path d="M20.3659 32.5279C21.2034 32.5279 21.8823 31.8469 21.8823 31.007C21.8823 30.167 21.2034 29.4861 20.3659 29.4861C19.5285 29.4861 18.8496 30.167 18.8496 31.007C18.8496 31.8469 19.5285 32.5279 20.3659 32.5279Z" fill="#FF6A3D" fill-opacity="0.7"/>
<path d="M23.529 27.7338C22.6833 27.7338 21.998 28.4211 21.998 29.2693C21.998 30.1175 22.6833 30.8048 23.529 30.8048C24.3746 30.8048 25.0599 30.1175 25.0599 29.2693C25.0599 28.4211 24.3746 27.7338 23.529 27.7338Z" fill="#FF6A3D" fill-opacity="0.7"/>
<path d="M26.8882 29.5033C27.7498 29.5033 28.4483 28.8027 28.4483 27.9385C28.4483 27.0743 27.7498 26.3738 26.8882 26.3738C26.0266 26.3738 25.3281 27.0743 25.3281 27.9385C25.3281 28.8027 26.0266 29.5033 26.8882 29.5033Z" fill="#FF6A3D" fill-opacity="0.7"/>
<path d="M30.3715 28.6196C31.2412 28.6196 31.9462 27.9125 31.9462 27.0402C31.9462 26.1679 31.2412 25.4608 30.3715 25.4608C29.5019 25.4608 28.7969 26.1679 28.7969 27.0402C28.7969 27.9125 29.5019 28.6196 30.3715 28.6196Z" fill="#FF6A3D" fill-opacity="0.7"/>
<path d="M60.6659 38.3973C60.6659 37.476 59.9224 36.7156 58.9892 36.7156C58.0561 36.7156 57.3125 37.4614 57.3125 38.3973C57.3125 39.3333 58.0561 40.0791 58.9892 40.0791C59.9224 40.0791 60.6659 39.3333 60.6659 38.3973Z" fill="#FF6A3D" fill-opacity="0.7"/>
<path d="M8.24595 41.0418C8.95456 41.0418 9.529 40.4657 9.529 39.7549C9.529 39.0442 8.95456 38.468 8.24595 38.468C7.53734 38.468 6.96289 39.0442 6.96289 39.7549C6.96289 40.4657 7.53734 41.0418 8.24595 41.0418Z" fill="#FF6A3D" fill-opacity="0.7"/>
<path d="M11.5557 36.7155C11.5557 35.955 10.9433 35.3555 10.1997 35.3555C9.45611 35.3555 8.84375 35.9697 8.84375 36.7155C8.84375 37.4613 9.45611 38.0755 10.1997 38.0755C10.9433 38.0755 11.5557 37.4613 11.5557 36.7155Z" fill="#FF6A3D" fill-opacity="0.7"/>
<path d="M13.8775 33.9024C13.8775 33.1274 13.2506 32.4985 12.4778 32.4985C11.7051 32.4985 11.0781 33.1274 11.0781 33.9024C11.0781 34.6775 11.7051 35.3063 12.4778 35.3063C13.2506 35.3063 13.8775 34.6775 13.8775 33.9024Z" fill="#FF6A3D" fill-opacity="0.7"/>
<path d="M16.5274 31.3959C16.5274 30.5769 15.8713 29.9335 15.0693 29.9335C14.2674 29.9335 13.6113 30.5915 13.6113 31.3959C13.6113 32.2002 14.2674 32.8583 15.0693 32.8583C15.8713 32.8583 16.5274 32.2002 16.5274 31.3959Z" fill="#FF6A3D" fill-opacity="0.7"/>
<path d="M17.9344 30.6611C18.7509 30.6611 19.4216 29.9884 19.4216 29.1695C19.4216 28.3506 18.7509 27.6779 17.9344 27.6779C17.118 27.6779 16.4473 28.3506 16.4473 29.1695C16.4473 29.9884 17.118 30.6611 17.9344 30.6611Z" fill="#FF6A3D" fill-opacity="0.7"/>
<path d="M21.0105 28.8228C21.8479 28.8228 22.5268 28.1419 22.5268 27.3019C22.5268 26.4619 21.8479 25.781 21.0105 25.781C20.173 25.781 19.4941 26.4619 19.4941 27.3019C19.4941 28.1419 20.173 28.8228 21.0105 28.8228Z" fill="#FF6A3D" fill-opacity="0.7"/>
<path d="M25.8333 25.8C25.8333 24.9518 25.1481 24.2645 24.3024 24.2645C23.4568 24.2645 22.7715 24.9518 22.7715 25.8C22.7715 26.6482 23.4568 27.3355 24.3024 27.3355C25.1481 27.3355 25.8333 26.6482 25.8333 25.8Z" fill="#FF6A3D" fill-opacity="0.7"/>
<path d="M29.2899 24.6853C29.2899 23.8225 28.5901 23.106 27.7153 23.106C26.8405 23.106 26.1406 23.8079 26.1406 24.6853C26.1406 25.5628 26.8405 26.2647 27.7153 26.2647C28.5901 26.2647 29.2899 25.5628 29.2899 24.6853Z" fill="#FF6A3D" fill-opacity="0.7"/>
<path d="M31.2611 25.5642C32.1388 25.5642 32.8504 24.8506 32.8504 23.9702C32.8504 23.0899 32.1388 22.3762 31.2611 22.3762C30.3834 22.3762 29.6719 23.0899 29.6719 23.9702C29.6719 24.8506 30.3834 25.5642 31.2611 25.5642Z" fill="#FF6A3D" fill-opacity="0.7"/>
<path d="M5.54853 41.2701C5.54853 40.5535 4.9799 39.9832 4.26548 39.9832C3.55105 39.9832 2.98242 40.5535 2.98242 41.2701C2.98242 41.9866 3.55105 42.557 4.26548 42.557C4.9799 42.557 5.54853 41.9866 5.54853 41.2701Z" fill="#FF6A3D" fill-opacity="0.7"/>
<path d="M7.25502 38.0518C7.25502 37.306 6.65723 36.7064 5.91364 36.7064C5.17005 36.7064 4.57227 37.306 4.57227 38.0518C4.57227 38.7976 5.17005 39.3972 5.91364 39.3972C6.65723 39.3972 7.25502 38.7976 7.25502 38.0518Z" fill="#FF6A3D" fill-opacity="0.7"/>
<path d="M9.23535 35.0175C9.23535 34.2571 8.62298 33.6575 7.87939 33.6575C7.13581 33.6575 6.52344 34.2717 6.52344 35.0175C6.52344 35.7633 7.13581 36.3775 7.87939 36.3775C8.62298 36.3775 9.23535 35.7633 9.23535 35.0175Z" fill="#FF6A3D" fill-opacity="0.7"/>
<path d="M11.5649 32.2015C11.5649 31.4264 10.9379 30.783 10.1506 30.783C9.36327 30.783 8.73633 31.4118 8.73633 32.2015C8.73633 32.9912 9.36327 33.62 10.1506 33.62C10.9379 33.62 11.5649 32.9912 11.5649 32.2015Z" fill="#FF6A3D" fill-opacity="0.7"/>
<path d="M12.6954 31.0948C13.4973 31.0948 14.1388 30.4513 14.1388 29.647C14.1388 28.8427 13.4973 28.1992 12.6954 28.1992C11.8935 28.1992 11.252 28.8427 11.252 29.647C11.252 30.4513 11.8935 31.0948 12.6954 31.0948Z" fill="#FF6A3D" fill-opacity="0.7"/>
<path d="M15.4989 28.8549C16.3202 28.8549 16.9861 28.187 16.9861 27.3632C16.9861 26.5394 16.3202 25.8716 15.4989 25.8716C14.6776 25.8716 14.0117 26.5394 14.0117 27.3632C14.0117 28.187 14.6776 28.8549 15.4989 28.8549Z" fill="#FF6A3D" fill-opacity="0.7"/>
<path d="M20.0463 25.4119C20.0463 24.5783 19.3757 23.891 18.53 23.891C17.6844 23.891 17.0137 24.5637 17.0137 25.4119C17.0137 26.2601 17.6844 26.9328 18.53 26.9328C19.3757 26.9328 20.0463 26.2601 20.0463 25.4119Z" fill="#FF6A3D" fill-opacity="0.7"/>
<path d="M21.738 25.2915C22.5836 25.2915 23.2689 24.6042 23.2689 23.756C23.2689 22.9078 22.5836 22.2205 21.738 22.2205C20.8923 22.2205 20.207 22.9078 20.207 23.756C20.207 24.6042 20.8923 25.2915 21.738 25.2915Z" fill="#FF6A3D" fill-opacity="0.7"/>
<path d="M25.1021 24.0149C25.9624 24.0149 26.6476 23.313 26.6476 22.4648C26.6476 21.6166 25.9478 20.9147 25.1021 20.9147C24.2565 20.9147 23.5566 21.6166 23.5566 22.4648C23.5566 23.313 24.2565 24.0149 25.1021 24.0149Z" fill="#FF6A3D" fill-opacity="0.7"/>
<path d="M28.5922 23.1154C29.4619 23.1154 30.1669 22.4083 30.1669 21.536C30.1669 20.6638 29.4619 19.9567 28.5922 19.9567C27.7226 19.9567 27.0176 20.6638 27.0176 21.536C27.0176 22.4083 27.7226 23.1154 28.5922 23.1154Z" fill="#FF6A3D" fill-opacity="0.7"/>
<path d="M63.6405 36.7217C64.5736 36.7217 65.3318 35.9613 65.3318 35.0254C65.3318 34.0894 64.5736 33.329 63.6405 33.329C62.7074 33.329 61.9492 34.0894 61.9492 35.0254C61.9492 35.9613 62.7074 36.7217 63.6405 36.7217Z" fill="#FF6A3D" fill-opacity="0.7"/>
<path d="M1.9091 40.8301C2.60966 40.8301 3.17758 40.2605 3.17758 39.5578C3.17758 38.8551 2.60966 38.2855 1.9091 38.2855C1.20854 38.2855 0.640625 38.8551 0.640625 39.5578C0.640625 40.2605 1.20854 40.8301 1.9091 40.8301Z" fill="#FF6A3D" fill-opacity="0.7"/>
<path d="M4.92103 36.3449C4.92103 35.5991 4.32325 34.9995 3.57966 34.9995C2.83607 34.9995 2.23828 35.5991 2.23828 36.3449C2.23828 37.0907 2.83607 37.6903 3.57966 37.6903C4.32325 37.6903 4.92103 37.0907 4.92103 36.3449Z" fill="#FF6A3D" fill-opacity="0.7"/>
<path d="M5.54541 31.9598C4.80182 31.9598 4.18945 32.574 4.18945 33.3199C4.18945 34.0657 4.80182 34.6799 5.54541 34.6799C6.289 34.6799 6.90137 34.0657 6.90137 33.3199C6.90137 32.574 6.289 31.9598 5.54541 31.9598Z" fill="#FF6A3D" fill-opacity="0.7"/>
<path d="M9.2076 30.4983C9.2076 29.7232 8.58065 29.0944 7.8079 29.0944C7.03515 29.0944 6.4082 29.7232 6.4082 30.4983C6.4082 31.2733 7.03515 31.9022 7.8079 31.9022C8.58065 31.9022 9.2076 31.2733 9.2076 30.4983Z" fill="#FF6A3D" fill-opacity="0.7"/>
<path d="M10.3322 29.3202C11.1133 29.3202 11.7465 28.6851 11.7465 27.9017C11.7465 27.1182 11.1133 26.4832 10.3322 26.4832C9.55116 26.4832 8.91797 27.1182 8.91797 27.9017C8.91797 28.6851 9.55116 29.3202 10.3322 29.3202Z" fill="#FF6A3D" fill-opacity="0.7"/>
<path d="M13.0986 27.0532C13.9006 27.0532 14.5567 26.3951 14.5567 25.5908C14.5567 24.7865 13.9006 24.1284 13.0986 24.1284C12.2967 24.1284 11.6406 24.7865 11.6406 25.5908C11.6406 26.3951 12.2967 27.0532 13.0986 27.0532Z" fill="#FF6A3D" fill-opacity="0.7"/>
<path d="M14.5566 23.5115C14.5566 24.3305 15.2273 25.0032 16.0438 25.0032C16.8603 25.0032 17.531 24.3305 17.531 23.5115C17.531 22.6926 16.8603 22.0199 16.0438 22.0199C15.2273 22.0199 14.5566 22.6926 14.5566 23.5115Z" fill="#FF6A3D" fill-opacity="0.7"/>
<path d="M19.2136 23.2726C20.0511 23.2726 20.7299 22.5917 20.7299 21.7517C20.7299 20.9118 20.0511 20.2308 19.2136 20.2308C18.3762 20.2308 17.6973 20.9118 17.6973 21.7517C17.6973 22.5917 18.3762 23.2726 19.2136 23.2726Z" fill="#FF6A3D" fill-opacity="0.7"/>
<path d="M22.5251 21.8504C23.3706 21.8504 24.056 21.163 24.056 20.3149C24.056 19.4669 23.3706 18.7794 22.5251 18.7794C21.6796 18.7794 20.9941 19.4669 20.9941 20.3149C20.9941 21.163 21.6796 21.8504 22.5251 21.8504Z" fill="#FF6A3D" fill-opacity="0.7"/>
<path d="M25.9555 20.7783C26.8252 20.7783 27.5302 20.0712 27.5302 19.1989C27.5302 18.3266 26.8252 17.6195 25.9555 17.6195C25.0859 17.6195 24.3809 18.3266 24.3809 19.1989C24.3809 20.0712 25.0859 20.7783 25.9555 20.7783Z" fill="#FF6A3D" fill-opacity="0.7"/>
<path d="M31.0613 18.4109C31.0613 17.5335 30.3469 16.8169 29.4721 16.8169C28.5972 16.8169 27.8828 17.5335 27.8828 18.4109C27.8828 19.2883 28.5972 20.0049 29.4721 20.0049C30.3469 20.0049 31.0613 19.2883 31.0613 18.4109Z" fill="#FF6A3D" fill-opacity="0.7"/>
<path d="M-0.470851 39.1341C0.237761 39.1341 0.812204 38.5579 0.812204 37.8472C0.812204 37.1365 0.237761 36.5603 -0.470851 36.5603C-1.17946 36.5603 -1.75391 37.1365 -1.75391 37.8472C-1.75391 38.5579 -1.17946 39.1341 -0.470851 39.1341Z" fill="#FF6A3D" fill-opacity="0.7"/>
<path d="M-0.103516 34.6598C-0.103516 35.391 0.494273 35.9905 1.22328 35.9905C1.95229 35.9905 2.55008 35.391 2.55008 34.6598C2.55008 33.9286 1.95229 33.329 1.22328 33.329C0.494273 33.329 -0.103516 33.9286 -0.103516 34.6598Z" fill="#FF6A3D" fill-opacity="0.7"/>
<path d="M1.87891 31.6313C1.87891 32.3771 2.49127 32.9913 3.23486 32.9913C3.97845 32.9913 4.59082 32.3771 4.59082 31.6313C4.59082 30.8854 3.97845 30.2712 3.23486 30.2712C2.49127 30.2712 1.87891 30.8854 1.87891 31.6313Z" fill="#FF6A3D" fill-opacity="0.7"/>
<path d="M5.47782 30.2043C6.25085 30.2043 6.87752 29.5757 6.87752 28.8004C6.87752 28.025 6.25085 27.3965 5.47782 27.3965C4.70479 27.3965 4.07812 28.025 4.07812 28.8004C4.07812 29.5757 4.70479 30.2043 5.47782 30.2043Z" fill="#FF6A3D" fill-opacity="0.7"/>
<path d="M7.96701 24.7581C7.17968 24.7581 6.55273 25.4015 6.55273 26.1766C6.55273 26.9516 7.19426 27.5951 7.96701 27.5951C8.73976 27.5951 9.38129 26.9516 9.38129 26.1766C9.38129 25.4015 8.73976 24.7581 7.96701 24.7581Z" fill="#FF6A3D" fill-opacity="0.7"/>
<path d="M10.6846 22.3313C9.88267 22.3313 9.22656 22.9894 9.22656 23.7937C9.22656 24.598 9.88267 25.2561 10.6846 25.2561C11.4865 25.2561 12.1426 24.598 12.1426 23.7937C12.1426 22.9894 11.4865 22.3313 10.6846 22.3313Z" fill="#FF6A3D" fill-opacity="0.7"/>
<path d="M13.6161 20.1941C12.7996 20.1941 12.1289 20.8522 12.1289 21.6857C12.1289 22.5193 12.785 23.1774 13.6161 23.1774C14.4472 23.1774 15.1033 22.5193 15.1033 21.6857C15.1033 20.8522 14.4472 20.1941 13.6161 20.1941Z" fill="#FF6A3D" fill-opacity="0.7"/>
<path d="M18.2105 19.8201C18.2105 18.9865 17.5399 18.3138 16.7088 18.3138C15.8777 18.3138 15.207 18.9865 15.207 19.8201C15.207 20.6537 15.8777 21.3264 16.7088 21.3264C17.5399 21.3264 18.2105 20.6537 18.2105 19.8201Z" fill="#FF6A3D" fill-opacity="0.7"/>
<path d="M21.4915 18.243C21.4915 17.3948 20.8063 16.7075 19.9606 16.7075C19.115 16.7075 18.4297 17.3948 18.4297 18.243C18.4297 19.0912 19.115 19.7785 19.9606 19.7785C20.8063 19.7785 21.4915 19.0912 21.4915 18.243Z" fill="#FF6A3D" fill-opacity="0.7"/>
<path d="M23.3296 15.4203C22.4694 15.4203 21.7695 16.1222 21.7695 16.985C21.7695 17.8479 22.4694 18.5498 23.3296 18.5498C24.1898 18.5498 24.8897 17.8479 24.8897 16.985C24.8897 16.1222 24.1898 15.4203 23.3296 15.4203Z" fill="#FF6A3D" fill-opacity="0.7"/>
<path d="M26.806 14.4163C25.9312 14.4163 25.2168 15.1328 25.2168 16.0103C25.2168 16.8877 25.9312 17.6043 26.806 17.6043C27.6808 17.6043 28.3953 16.8877 28.3953 16.0103C28.3953 15.1328 27.6808 14.4163 26.806 14.4163Z" fill="#FF6A3D" fill-opacity="0.7"/>
<path d="M68.292 33.3244C69.2251 33.3244 69.9687 32.564 69.9687 31.6427C69.9687 30.7214 69.2105 29.9609 68.292 29.9609C67.3734 29.9609 66.6152 30.7214 66.6152 31.6427C66.6152 32.564 67.3734 33.3244 68.292 33.3244Z" fill="#FF6A3D" fill-opacity="0.7"/>
<path d="M-2.42969 32.9586C-2.42969 33.7044 -1.8319 34.304 -1.08831 34.304C-0.344723 34.304 0.253064 33.7044 0.253064 32.9586C0.253064 32.2127 -0.344723 31.6132 -1.08831 31.6132C-1.8319 31.6132 -2.42969 32.2127 -2.42969 32.9586Z" fill="#FF6A3D" fill-opacity="0.7"/>
<path d="M-0.480469 29.939C-0.480469 30.6994 0.131898 31.3136 0.890067 31.3136C1.64824 31.3136 2.2606 30.6994 2.2606 29.939C2.2606 29.1785 1.64824 28.5643 0.890067 28.5643C0.131898 28.5643 -0.480469 29.1785 -0.480469 29.939Z" fill="#FF6A3D" fill-opacity="0.7"/>
<path d="M3.14384 25.6896C2.37109 25.6896 1.74414 26.3184 1.74414 27.0935C1.74414 27.8685 2.37109 28.4974 3.14384 28.4974C3.91659 28.4974 4.54353 27.8685 4.54353 27.0935C4.54353 26.3184 3.91659 25.6896 3.14384 25.6896Z" fill="#FF6A3D" fill-opacity="0.7"/>
<path d="M5.83468 25.8633C6.59779 25.7395 7.11632 25.0186 6.99286 24.2532C6.8694 23.4878 6.1507 22.9678 5.38759 23.0916C4.62448 23.2154 4.10594 23.9363 4.2294 24.7017C4.35286 25.4671 5.07157 25.9872 5.83468 25.8633Z" fill="#FF6A3D" fill-opacity="0.7"/>
<path d="M8.29591 20.5776C7.494 20.5776 6.83789 21.2357 6.83789 22.04C6.83789 22.8443 7.494 23.5024 8.29591 23.5024C9.09782 23.5024 9.75393 22.8443 9.75393 22.04C9.75393 21.2357 9.09782 20.5776 8.29591 20.5776Z" fill="#FF6A3D" fill-opacity="0.7"/>
<path d="M9.70312 19.831C9.70312 20.6354 10.3592 21.2934 11.1611 21.2934C11.9631 21.2934 12.6192 20.6354 12.6192 19.831C12.6192 19.0267 11.9631 18.3687 11.1611 18.3687C10.3592 18.3687 9.70312 19.0267 9.70312 19.831Z" fill="#FF6A3D" fill-opacity="0.7"/>
<path d="M12.7227 17.9125C12.7227 18.7461 13.3933 19.4188 14.2244 19.4188C15.0555 19.4188 15.7262 18.7461 15.7262 17.9125C15.7262 17.079 15.0555 16.4062 14.2244 16.4062C13.3933 16.4062 12.7227 17.079 12.7227 17.9125Z" fill="#FF6A3D" fill-opacity="0.7"/>
<path d="M15.8887 16.244C15.8887 17.0922 16.5739 17.7795 17.4196 17.7795C18.2652 17.7795 18.9505 17.0922 18.9505 16.244C18.9505 15.3958 18.2652 14.7085 17.4196 14.7085C16.5739 14.7085 15.8887 15.3958 15.8887 16.244Z" fill="#FF6A3D" fill-opacity="0.7"/>
<path d="M19.1855 14.84C19.1855 15.7028 19.8854 16.4048 20.7456 16.4048C21.6059 16.4048 22.3057 15.7028 22.3057 14.84C22.3057 13.9772 21.6059 13.2753 20.7456 13.2753C19.8854 13.2753 19.1855 13.9772 19.1855 14.84Z" fill="#FF6A3D" fill-opacity="0.7"/>
<path d="M22.5996 13.7228C22.5996 14.5856 23.2995 15.3022 24.1743 15.3022C25.0491 15.3022 25.7489 14.6003 25.7489 13.7228C25.7489 12.8454 25.0491 12.1434 24.1743 12.1434C23.2995 12.1434 22.5996 12.8454 22.5996 13.7228Z" fill="#FF6A3D" fill-opacity="0.7"/>
<path d="M29.282 12.8795C29.282 12.0021 28.5676 11.2855 27.6928 11.2855C26.8179 11.2855 26.1035 12.0021 26.1035 12.8795C26.1035 13.757 26.8179 14.4735 27.6928 14.4735C28.5676 14.4735 29.282 13.757 29.282 12.8795Z" fill="#FF6A3D" fill-opacity="0.7"/>
<path d="M0.806992 24.0193C0.0488234 24.0193 -0.578125 24.6481 -0.578125 25.4086C-0.578125 26.169 0.0488234 26.7978 0.806992 26.7978C1.56516 26.7978 2.19211 26.169 2.19211 25.4086C2.19211 24.6481 1.56516 24.0193 0.806992 24.0193Z" fill="#FF6A3D" fill-opacity="0.7"/>
<path d="M3.26102 21.3351C2.48828 21.3351 1.86133 21.9639 1.86133 22.739C1.86133 23.514 2.48828 24.1429 3.26102 24.1429C4.03377 24.1429 4.66072 23.514 4.66072 22.739C4.66072 21.9639 4.03377 21.3351 3.26102 21.3351Z" fill="#FF6A3D" fill-opacity="0.7"/>
<path d="M5.91114 18.825C5.10923 18.825 4.45312 19.483 4.45312 20.2873C4.45312 21.0917 5.10923 21.7497 5.91114 21.7497C6.71305 21.7497 7.36916 21.0917 7.36916 20.2873C7.36916 19.483 6.71305 18.825 5.91114 18.825Z" fill="#FF6A3D" fill-opacity="0.7"/>
<path d="M8.74317 16.5795C7.94126 16.5795 7.28516 17.2375 7.28516 18.0419C7.28516 18.8462 7.94126 19.5043 8.74317 19.5043C9.54508 19.5043 10.2012 18.8462 10.2012 18.0419C10.2012 17.2375 9.54508 16.5795 8.74317 16.5795Z" fill="#FF6A3D" fill-opacity="0.7"/>
<path d="M11.7518 14.5349C10.9207 14.5349 10.25 15.2076 10.25 16.0412C10.25 16.8747 10.9207 17.5474 11.7518 17.5474C12.5828 17.5474 13.2535 16.8747 13.2535 16.0412C13.2535 15.2076 12.5828 14.5349 11.7518 14.5349Z" fill="#FF6A3D" fill-opacity="0.7"/>
<path d="M14.8952 15.7969C15.7327 15.7969 16.4116 15.116 16.4116 14.276C16.4116 13.4361 15.7327 12.7551 14.8952 12.7551C14.0578 12.7551 13.3789 13.4361 13.3789 14.276C13.3789 15.116 14.0578 15.7969 14.8952 15.7969Z" fill="#FF6A3D" fill-opacity="0.7"/>
<path d="M18.1744 11.2034C17.3142 11.2034 16.6289 11.8907 16.6289 12.7535C16.6289 13.6163 17.3142 14.3036 18.1744 14.3036C19.0346 14.3036 19.7199 13.6163 19.7199 12.7535C19.7199 11.8907 19.0346 11.2034 18.1744 11.2034Z" fill="#FF6A3D" fill-opacity="0.7"/>
<path d="M21.5581 9.92542C20.6979 9.92542 19.998 10.6274 19.998 11.4902C19.998 12.353 20.6979 13.0549 21.5581 13.0549C22.4184 13.0549 23.1182 12.353 23.1182 11.4902C23.1182 10.6274 22.4184 9.92542 21.5581 9.92542Z" fill="#FF6A3D" fill-opacity="0.7"/>
<path d="M26.6103 10.5099C26.6103 9.63249 25.9104 8.93054 25.0356 8.93054C24.1608 8.93054 23.4609 9.63249 23.4609 10.5099C23.4609 11.3874 24.1608 12.0893 25.0356 12.0893C25.9104 12.0893 26.6103 11.3874 26.6103 10.5099Z" fill="#FF6A3D" fill-opacity="0.7"/>
<path d="M30.1668 9.82167C30.1668 8.94423 29.4523 8.22766 28.5775 8.22766C27.7027 8.22766 26.9883 8.94423 26.9883 9.82167C26.9883 10.6991 27.7027 11.4157 28.5775 11.4157C29.4523 11.4157 30.1668 10.6991 30.1668 9.82167Z" fill="#FF6A3D" fill-opacity="0.7"/>
<path d="M71.252 28.2528C71.252 29.1887 72.0101 29.9491 72.9433 29.9491C73.8764 29.9491 74.6346 29.1887 74.6346 28.2528C74.6346 27.3168 73.8764 26.5564 72.9433 26.5564C72.0101 26.5564 71.252 27.3168 71.252 28.2528Z" fill="#FF6A3D" fill-opacity="0.7"/>
<path d="M0.910371 19.6191C0.123041 19.6191 -0.503906 20.2626 -0.503906 21.0377C-0.503906 21.8127 0.137622 22.4562 0.910371 22.4562C1.68312 22.4562 2.32465 21.8127 2.32465 21.0377C2.32465 20.2626 1.68312 19.6191 0.910371 19.6191Z" fill="#FF6A3D" fill-opacity="0.7"/>
<path d="M3.53523 17.0817C2.73332 17.0817 2.0918 17.7251 2.0918 18.5294C2.0918 19.3338 2.73332 19.9772 3.53523 19.9772C4.33714 19.9772 4.97867 19.3338 4.97867 18.5294C4.97867 17.7251 4.33714 17.0817 3.53523 17.0817Z" fill="#FF6A3D" fill-opacity="0.7"/>
<path d="M6.33588 14.7722C5.51939 14.7722 4.86328 15.4303 4.86328 16.2492C4.86328 17.0682 5.51939 17.7262 6.33588 17.7262C7.15237 17.7262 7.80848 17.0682 7.80848 16.2492C7.80848 15.4303 7.15237 14.7722 6.33588 14.7722Z" fill="#FF6A3D" fill-opacity="0.7"/>
<path d="M7.79297 14.178C7.79297 15.0116 8.46366 15.6843 9.29473 15.6843C10.1258 15.6843 10.7965 15.0116 10.7965 14.178C10.7965 13.3445 10.1258 12.6718 9.29473 12.6718C8.46366 12.6718 7.79297 13.3445 7.79297 14.178Z" fill="#FF6A3D" fill-opacity="0.7"/>
<path d="M12.3952 13.8526C13.2327 13.8526 13.9116 13.1716 13.9116 12.3317C13.9116 11.4917 13.2327 10.8108 12.3952 10.8108C11.5578 10.8108 10.8789 11.4917 10.8789 12.3317C10.8789 13.1716 11.5578 13.8526 12.3952 13.8526Z" fill="#FF6A3D" fill-opacity="0.7"/>
<path d="M14.0859 10.7217C14.0859 11.5699 14.7712 12.2572 15.6169 12.2572C16.4625 12.2572 17.1478 11.5699 17.1478 10.7217C17.1478 9.87348 16.4625 9.18616 15.6169 9.18616C14.7712 9.18616 14.0859 9.87348 14.0859 10.7217Z" fill="#FF6A3D" fill-opacity="0.7"/>
<path d="M17.4043 9.34872C17.4043 10.2115 18.1041 10.8989 18.9498 10.8989C19.7954 10.8989 20.4953 10.1969 20.4953 9.34872C20.4953 8.50053 19.7954 7.79858 18.9498 7.79858C18.1041 7.79858 17.4043 8.50053 17.4043 9.34872Z" fill="#FF6A3D" fill-opacity="0.7"/>
<path d="M22.396 9.78711C23.2576 9.78711 23.9561 9.08654 23.9561 8.22235C23.9561 7.35816 23.2576 6.65759 22.396 6.65759C21.5344 6.65759 20.8359 7.35816 20.8359 8.22235C20.8359 9.08654 21.5344 9.78711 22.396 9.78711Z" fill="#FF6A3D" fill-opacity="0.7"/>
<path d="M24.3066 7.37538C24.3066 8.25281 25.0211 8.96939 25.8959 8.96939C26.7707 8.96939 27.4851 8.25281 27.4851 7.37538C27.4851 6.49794 26.7707 5.78137 25.8959 5.78137C25.0211 5.78137 24.3066 6.49794 24.3066 7.37538Z" fill="#FF6A3D" fill-opacity="0.7"/>
<path d="M74.1797 26.778C75.0977 26.778 75.8419 26.0316 75.8419 25.1109C75.8419 24.1901 75.0977 23.4437 74.1797 23.4437C73.2617 23.4437 72.5176 24.1901 72.5176 25.1109C72.5176 26.0316 73.2617 26.778 74.1797 26.778Z" fill="#FF6A3D" fill-opacity="0.7"/>
<path d="M1.15828 15.3381C0.356371 15.3381 -0.285156 15.9816 -0.285156 16.7859C-0.285156 17.5902 0.356371 18.2337 1.15828 18.2337C1.96019 18.2337 2.60172 17.5902 2.60172 16.7859C2.60172 15.9816 1.96019 15.3381 1.15828 15.3381Z" fill="#FF6A3D" fill-opacity="0.7"/>
<path d="M3.93263 15.9446C4.73787 15.9446 5.39064 15.2898 5.39064 14.4822C5.39064 13.6745 4.73787 13.0198 3.93263 13.0198C3.12739 13.0198 2.47461 13.6745 2.47461 14.4822C2.47461 15.2898 3.12739 15.9446 3.93263 15.9446Z" fill="#FF6A3D" fill-opacity="0.7"/>
<path d="M6.84955 10.8656C6.03306 10.8656 5.37695 11.5237 5.37695 12.3426C5.37695 13.1616 6.03306 13.8196 6.84955 13.8196C7.66604 13.8196 8.32215 13.1616 8.32215 12.3426C8.32215 11.5237 7.66604 10.8656 6.84955 10.8656Z" fill="#FF6A3D" fill-opacity="0.7"/>
<path d="M9.90801 8.92139C9.07694 8.92139 8.40625 9.59409 8.40625 10.4277C8.40625 11.2612 9.07694 11.9339 9.90801 11.9339C10.7391 11.9339 11.4098 11.2612 11.4098 10.4277C11.4098 9.59409 10.7391 8.92139 9.90801 8.92139Z" fill="#FF6A3D" fill-opacity="0.7"/>
<path d="M13.0886 10.2472C13.9261 10.2472 14.6049 9.56629 14.6049 8.72633C14.6049 7.88637 13.9261 7.20544 13.0886 7.20544C12.2512 7.20544 11.5723 7.88637 11.5723 8.72633C11.5723 9.56629 12.2512 10.2472 13.0886 10.2472Z" fill="#FF6A3D" fill-opacity="0.7"/>
<path d="M16.3853 5.69971C15.5251 5.69971 14.8398 6.38703 14.8398 7.24984C14.8398 8.11265 15.5251 8.79998 16.3853 8.79998C17.2456 8.79998 17.9308 8.11265 17.9308 7.24984C17.9308 6.38703 17.2456 5.69971 16.3853 5.69971Z" fill="#FF6A3D" fill-opacity="0.7"/>
<path d="M19.7799 4.45789C18.9196 4.45789 18.2344 5.15983 18.2344 6.00802C18.2344 6.85621 18.9342 7.57278 19.7799 7.57278C20.6255 7.57278 21.3254 6.87083 21.3254 6.00802C21.3254 5.14521 20.6255 4.45789 19.7799 4.45789Z" fill="#FF6A3D" fill-opacity="0.7"/>
<path d="M23.2572 6.62356C24.1349 6.62356 24.8464 5.9099 24.8464 5.02955C24.8464 4.14921 24.1349 3.43555 23.2572 3.43555C22.3795 3.43555 21.668 4.14921 21.668 5.02955C21.668 5.9099 22.3795 6.62356 23.2572 6.62356Z" fill="#FF6A3D" fill-opacity="0.7"/>
<path d="M26.7826 5.86477C27.6603 5.86477 28.3718 5.15111 28.3718 4.27076C28.3718 3.39042 27.6603 2.67676 26.7826 2.67676C25.9049 2.67676 25.1934 3.39042 25.1934 4.27076C25.1934 5.15111 25.9049 5.86477 26.7826 5.86477Z" fill="#FF6A3D" fill-opacity="0.7"/>
<path d="M77.583 26.5515C78.5161 26.5515 79.2597 25.791 79.2597 24.8697C79.2597 23.9484 78.5015 23.188 77.583 23.188C76.6644 23.188 75.9062 23.9484 75.9062 24.8697C75.9062 25.791 76.6644 26.5515 77.583 26.5515Z" fill="#FF6A3D" fill-opacity="0.7"/>
<path d="M-1.20786 16.4884C-0.418725 16.4884 0.220995 15.8467 0.220995 15.0552C0.220995 14.2637 -0.418725 13.6221 -1.20786 13.6221C-1.997 13.6221 -2.63672 14.2637 -2.63672 15.0552C-2.63672 15.8467 -1.997 16.4884 -1.20786 16.4884Z" fill="#FF6A3D" fill-opacity="0.7"/>
<path d="M1.54109 14.1538C2.343 14.1538 2.98453 13.4958 2.98453 12.7061C2.98453 11.9164 2.343 11.2583 1.54109 11.2583C0.739185 11.2583 0.0976562 11.9018 0.0976562 12.7061C0.0976562 13.5104 0.739185 14.1538 1.54109 14.1538Z" fill="#FF6A3D" fill-opacity="0.7"/>
<path d="M4.4101 12.013C5.22659 12.013 5.8827 11.3549 5.8827 10.536C5.8827 9.71704 5.22659 9.05896 4.4101 9.05896C3.59361 9.05896 2.9375 9.71704 2.9375 10.536C2.9375 11.3549 3.59361 12.013 4.4101 12.013Z" fill="#FF6A3D" fill-opacity="0.7"/>
<path d="M7.44616 10.0425C8.26265 10.0425 8.93334 9.36978 8.93334 8.55084C8.93334 7.7319 8.26265 7.0592 7.44616 7.0592C6.62967 7.0592 5.95898 7.7319 5.95898 8.55084C5.95898 9.36978 6.62967 10.0425 7.44616 10.0425Z" fill="#FF6A3D" fill-opacity="0.7"/>
<path d="M10.5788 8.28457C11.4163 8.28457 12.0952 7.60365 12.0952 6.76369C12.0952 5.92372 11.4163 5.2428 10.5788 5.2428C9.74139 5.2428 9.0625 5.92372 9.0625 6.76369C9.0625 7.60365 9.74139 8.28457 10.5788 8.28457Z" fill="#FF6A3D" fill-opacity="0.7"/>
<path d="M13.8337 6.74387C14.6793 6.74387 15.3646 6.05655 15.3646 5.20836C15.3646 4.36018 14.6793 3.67285 13.8337 3.67285C12.988 3.67285 12.3027 4.36018 12.3027 5.20836C12.3027 6.05655 12.988 6.74387 13.8337 6.74387Z" fill="#FF6A3D" fill-opacity="0.7"/>
<path d="M17.1851 5.44348C18.0453 5.44348 18.7452 4.74154 18.7452 3.87872C18.7452 3.01591 18.0453 2.31396 17.1851 2.31396C16.3248 2.31396 15.625 3.01591 15.625 3.87872C15.625 4.74154 16.3248 5.44348 17.1851 5.44348Z" fill="#FF6A3D" fill-opacity="0.7"/>
<path d="M20.6157 4.32149C21.4759 4.32149 22.1903 3.61954 22.1903 2.7421C22.1903 1.86467 21.4905 1.16272 20.6157 1.16272C19.7409 1.16272 19.041 1.86467 19.041 2.7421C19.041 3.61954 19.7409 4.32149 20.6157 4.32149Z" fill="#FF6A3D" fill-opacity="0.7"/>
<path d="M24.1146 3.44717C24.9894 3.44717 25.7039 2.7306 25.7039 1.85316C25.7039 0.975727 24.9894 0.259155 24.1146 0.259155C23.2398 0.259155 22.5254 0.975727 22.5254 1.85316C22.5254 2.7306 23.2398 3.44717 24.1146 3.44717Z" fill="#FF6A3D" fill-opacity="0.7"/>
<path d="M27.6771 2.80825C28.5519 2.80825 29.2664 2.09168 29.2664 1.21425C29.2664 0.336811 28.5519 -0.379761 27.6771 -0.379761C26.8023 -0.379761 26.0879 0.336811 26.0879 1.21425C26.0879 2.09168 26.8023 2.80825 27.6771 2.80825Z" fill="#FF6A3D" fill-opacity="0.7"/>
<path d="M30.5633 2.20452C30.5633 2.20452 30.4321 2.16064 30.3591 2.16064C29.4841 2.16064 28.7695 2.87741 28.7695 3.75509C28.7695 4.41334 29.1632 4.96921 29.7174 5.21788C29.6299 5.20325 29.557 5.15937 29.4549 5.15937C28.5799 5.15937 27.8652 5.87614 27.8652 6.75382C27.8652 7.6315 28.5799 8.34826 29.4549 8.34826C30.33 8.34826 31.0446 7.6315 31.0446 6.75382C31.0446 6.09556 30.6508 5.5397 30.0966 5.29102C30.1841 5.30565 30.257 5.34953 30.3591 5.34953C31.2342 5.34953 31.9488 4.63276 31.9488 3.75509C31.9488 3.12608 31.5842 2.59948 31.0446 2.33617C31.1175 2.33617 31.1758 2.38006 31.2488 2.38006C32.1238 2.38006 32.8384 1.66329 32.8384 0.78561C32.8384 -0.0920678 32.1238 -0.808838 31.2488 -0.808838C30.3737 -0.808838 29.6591 -0.0920678 29.6591 0.78561C29.6591 1.41461 30.0237 1.94122 30.5633 2.20452Z" fill="#FF6A3D" fill-opacity="0.7"/>
<path d="M33.9761 1.91096C33.9761 1.91096 33.9761 1.91096 33.9615 1.91096C33.0719 1.91096 32.3572 2.62773 32.3572 3.52004C32.3572 4.09053 32.6635 4.55863 33.1156 4.85118C33.101 4.85118 33.0719 4.85118 33.0573 4.85118C32.1677 4.85118 31.453 5.56796 31.453 6.46026C31.453 7.04538 31.7885 7.54273 32.2552 7.82066C32.2114 7.82066 32.1822 7.80603 32.1531 7.80603C31.2634 7.80603 30.5488 8.5228 30.5488 9.41511C30.5488 10.0441 30.9134 10.5561 31.4239 10.834C31.3655 10.834 31.3072 10.8048 31.2488 10.8048C30.3738 10.8048 29.6592 11.5215 29.6592 12.3992C29.6592 13.0575 30.0529 13.6133 30.6217 13.862C30.5342 13.8474 30.4467 13.8035 30.3592 13.8035C29.4842 13.8035 28.7695 14.5203 28.7695 15.3979C28.7695 16.2756 29.4842 16.9924 30.3592 16.9924C31.2343 16.9924 31.9489 16.2756 31.9489 15.3979C31.9489 14.7397 31.5551 14.1838 30.9863 13.9351C31.0738 13.9498 31.1613 13.9937 31.2488 13.9937C32.1239 13.9937 32.8385 13.2769 32.8385 12.3992C32.8385 11.7848 32.4739 11.2582 31.9635 10.9949C32.0218 10.9949 32.0801 11.0242 32.1385 11.0242C33.0281 11.0242 33.7427 10.3074 33.7427 9.41511C33.7427 8.82999 33.4073 8.33264 32.9406 8.05471C32.9844 8.05471 33.0135 8.06934 33.0427 8.06934C33.9323 8.06934 34.647 7.35257 34.647 6.46026C34.647 5.88977 34.3407 5.42168 33.8886 5.12912C33.9032 5.12912 33.9323 5.12912 33.9469 5.12912C34.8366 5.12912 35.5512 4.41235 35.5512 3.52004C35.5512 2.96418 35.2595 2.51071 34.8366 2.21815C34.8366 2.21815 34.8366 2.21815 34.8511 2.21815C35.7408 2.21815 36.4554 1.50138 36.4554 0.609076C36.4554 -0.28323 35.7408 -1 34.8511 -1C33.9615 -1 33.2469 -0.28323 33.2469 0.609076C33.2469 1.16494 33.5386 1.61841 33.9615 1.91096H33.9761Z" fill="#FF6A3D" fill-opacity="0.7"/>
<path d="M37.5007 1.91821C36.6402 1.94746 35.9547 2.64961 35.9547 3.51266C35.9547 4.03926 36.2173 4.4781 36.611 4.77066C35.7506 4.79992 35.0505 5.50206 35.0505 6.36511C35.0505 6.89172 35.3276 7.34518 35.7214 7.63774C34.8464 7.65237 34.1463 8.35451 34.1463 9.23219C34.1463 9.77342 34.4234 10.2269 34.8318 10.5194C33.9567 10.5194 33.2421 11.2362 33.2421 12.1285C33.2421 12.6844 33.5484 13.1525 33.9713 13.445C33.9713 13.445 33.9567 13.445 33.9421 13.445C33.0525 13.445 32.3379 14.1618 32.3379 15.0541C32.3379 15.6392 32.6733 16.1366 33.14 16.4145C33.1108 16.4145 33.0671 16.3999 33.0379 16.3999C32.1629 16.3999 31.4482 17.1167 31.4482 17.9943C31.4482 18.6233 31.8128 19.1499 32.3379 19.4132C32.2795 19.4132 32.2212 19.3694 32.1483 19.3694C31.2732 19.3694 30.5586 20.0861 30.5586 20.9638C30.5586 21.8415 31.2732 22.5583 32.1483 22.5583C33.0233 22.5583 33.738 21.8415 33.738 20.9638C33.738 20.3348 33.3733 19.8082 32.8483 19.5449C32.9067 19.5449 32.965 19.5888 33.0379 19.5888C33.913 19.5888 34.6276 18.872 34.6276 17.9943C34.6276 17.4092 34.2922 16.9119 33.8255 16.6339C33.8692 16.6339 33.8984 16.6486 33.9275 16.6486C34.8172 16.6486 35.5318 15.9318 35.5318 15.0395C35.5318 14.4836 35.2255 14.0155 34.8026 13.723C34.8026 13.723 34.8172 13.723 34.8318 13.723C35.7214 13.723 36.436 13.0062 36.436 12.1139C36.436 11.5727 36.1589 11.1192 35.7506 10.8266C36.6256 10.8266 37.3402 10.1099 37.3402 9.21756C37.3402 8.69095 37.0632 8.23749 36.6694 7.94493C37.5444 7.9303 38.2445 7.22816 38.2445 6.35048C38.2445 5.82387 37.982 5.38503 37.5882 5.09247C38.4487 5.06322 39.1487 4.36108 39.1487 3.49803C39.1487 2.98605 38.8862 2.54721 38.507 2.24002C39.3675 2.21077 40.0529 1.50862 40.0529 0.645575C40.0529 -0.217475 39.3383 -0.963501 38.4487 -0.963501C37.559 -0.963501 36.8444 -0.246731 36.8444 0.645575C36.8444 1.15755 37.1069 1.59639 37.4861 1.90358L37.5007 1.91821Z" fill="#FF6A3D" fill-opacity="0.7"/>
<path d="M41.0496 2.16829C40.2183 2.2268 39.562 2.89969 39.562 3.74811C39.562 4.24546 39.7954 4.66967 40.16 4.97686C39.3287 5.03537 38.6578 5.70826 38.6578 6.55668C38.6578 7.05403 38.9057 7.49287 39.2703 7.78543C38.439 7.84394 37.7682 8.51682 37.7682 9.36524C37.7682 9.87722 38.0161 10.3014 38.3807 10.594C37.5348 10.6379 36.8639 11.3254 36.8639 12.1884C36.8639 12.7004 37.1265 13.1393 37.4911 13.4318C36.6452 13.4757 35.9597 14.1632 35.9597 15.0263C35.9597 15.5529 36.2222 15.9917 36.6014 16.2843C35.741 16.3135 35.0555 17.0157 35.0555 17.8787C35.0555 18.4053 35.3326 18.8588 35.7264 19.1513C34.8513 19.166 34.1513 19.8681 34.1513 20.7458C34.1513 21.287 34.443 21.7405 34.8513 22.0331C33.9617 22.0331 33.2471 22.7498 33.2471 23.6421C33.2471 24.2126 33.5679 24.6953 34.02 24.9879C33.9909 24.9879 33.9763 24.9733 33.9471 24.9733C33.072 24.9733 32.3574 25.69 32.3574 26.5677C32.3574 27.4454 33.072 28.1622 33.9471 28.1622C34.8222 28.1622 35.5368 27.4454 35.5368 26.5677C35.5368 25.9972 35.2159 25.5145 34.7638 25.2366C34.793 25.2366 34.8076 25.2512 34.8367 25.2512C35.7264 25.2512 36.441 24.5344 36.441 23.6421C36.441 23.1009 36.1493 22.6474 35.741 22.3549C36.6306 22.3549 37.3452 21.6381 37.3452 20.7458C37.3452 20.2192 37.0681 19.7657 36.6743 19.4732C37.5494 19.4585 38.2494 18.7564 38.2494 17.8787C38.2494 17.3521 37.9869 16.9133 37.6077 16.6207C38.4682 16.5915 39.1537 15.8893 39.1537 15.0263C39.1537 14.5143 38.8911 14.0754 38.5265 13.7829C39.3724 13.739 40.0579 13.0515 40.0579 12.1884C40.0579 11.6765 39.8099 11.2523 39.4453 10.9597C40.2912 10.9158 40.9621 10.2283 40.9621 9.36524C40.9621 8.86789 40.7142 8.42906 40.3496 8.1365C41.1809 8.07798 41.8517 7.4051 41.8517 6.55668C41.8517 6.05933 41.6184 5.63512 41.2538 5.32793C42.0851 5.26942 42.756 4.59653 42.756 3.74811C42.756 3.25076 42.5226 2.82655 42.1726 2.53399C43.0039 2.47548 43.6602 1.80259 43.6602 0.954168C43.6602 0.105747 42.9455 -0.654907 42.0559 -0.654907C41.1663 -0.654907 40.4517 0.0618628 40.4517 0.954168C40.4517 1.45152 40.685 1.87573 41.035 2.16829H41.0496Z" fill="#FF6A3D" fill-opacity="0.7"/>
<path d="M44.5578 2.68798C43.7557 2.77575 43.1286 3.43401 43.1286 4.2678C43.1286 4.75053 43.3473 5.16011 43.6682 5.45267C42.866 5.54044 42.2243 6.19869 42.2243 7.03249C42.2243 7.51521 42.4431 7.93942 42.7785 8.23198C41.9764 8.31975 41.3347 8.97801 41.3347 9.8118C41.3347 10.2945 41.5535 10.7187 41.9035 11.0113C41.0868 11.0844 40.4451 11.7573 40.4451 12.5911C40.4451 13.0738 40.6638 13.498 40.9993 13.7906C40.1825 13.8637 39.5408 14.5366 39.5408 15.3704C39.5408 15.8532 39.7596 16.2774 40.1096 16.5699C39.2929 16.6431 38.6512 17.3159 38.6512 18.1497C38.6512 18.6471 38.8846 19.0713 39.2346 19.3639C38.4179 19.437 37.7616 20.0953 37.7616 20.9437C37.7616 21.441 38.0095 21.8652 38.3595 22.1724C37.5282 22.2309 36.8573 22.9038 36.8573 23.7523C36.8573 24.2642 37.1053 24.6884 37.4699 24.981C36.624 25.0249 35.9531 25.7124 35.9531 26.5754C35.9531 27.4385 36.6678 28.1845 37.5574 28.1845C38.447 28.1845 39.1617 27.4678 39.1617 26.5754C39.1617 26.0635 38.9137 25.6393 38.5491 25.3467C39.395 25.3028 40.0659 24.6153 40.0659 23.7523C40.0659 23.2549 39.8179 22.8307 39.4679 22.5235C40.2992 22.465 40.9701 21.7921 40.9701 20.9437C40.9701 20.4463 40.7367 20.0221 40.3867 19.7296C41.218 19.6564 41.8743 18.9835 41.8743 18.1351C41.8743 17.6524 41.6556 17.2282 41.3055 16.9356C42.1222 16.8625 42.764 16.1896 42.764 15.3558C42.764 14.8731 42.5306 14.4489 42.1952 14.1563C43.0119 14.0832 43.6536 13.4103 43.6536 12.5765C43.6536 12.0938 43.4348 11.6696 43.0848 11.377C43.9015 11.3039 44.5432 10.631 44.5432 9.79717C44.5432 9.31445 44.3245 8.90487 43.989 8.61231C44.8057 8.52454 45.4474 7.86628 45.4474 7.03249C45.4474 6.54977 45.2287 6.14018 44.9078 5.84762C45.71 5.75986 46.3517 5.1016 46.3517 4.2678C46.3517 3.78508 46.1329 3.3755 45.812 3.08294C46.6142 2.99517 47.2413 2.33691 47.2413 1.50312C47.2413 0.610813 46.5267 -0.105957 45.637 -0.105957C44.7474 -0.105957 44.0328 0.610813 44.0328 1.50312C44.0328 1.98584 44.2515 2.39542 44.5724 2.68798H44.5578Z" fill="#FF6A3D" fill-opacity="0.7"/>
<path d="M48.066 3.44653C47.2785 3.54892 46.6659 4.20718 46.6659 5.01172C46.6659 5.47981 46.8701 5.8894 47.1909 6.18196C46.4034 6.28435 45.7763 6.92798 45.7763 7.76178C45.7763 8.22987 45.9805 8.63945 46.3013 8.93201C45.5138 9.03441 44.8866 9.67804 44.8866 10.5118C44.8866 10.9799 45.0908 11.3895 45.4117 11.6821C44.6241 11.7845 43.997 12.4281 43.997 13.2619C43.997 13.73 44.2012 14.1396 44.522 14.4321C43.7345 14.5345 43.1074 15.1782 43.1074 16.0119C43.1074 16.48 43.3116 16.8896 43.6324 17.1968C42.8449 17.2992 42.2177 17.9428 42.2177 18.7766C42.2177 19.2447 42.4219 19.6543 42.7428 19.9615C41.9552 20.0639 41.3281 20.7075 41.3281 21.5413C41.3281 22.0094 41.5323 22.4336 41.8531 22.7262C41.051 22.8286 40.4385 23.4722 40.4385 24.306C40.4385 24.7741 40.6426 25.1983 40.9781 25.4909C40.1759 25.5786 39.5488 26.2369 39.5488 27.0707C39.5488 27.963 40.2635 28.6798 41.1531 28.6798C42.0427 28.6798 42.7573 27.963 42.7573 27.0707C42.7573 26.6026 42.5532 26.1784 42.2177 25.8858C43.0199 25.798 43.647 25.1398 43.647 24.306C43.647 23.8379 43.4428 23.4137 43.122 23.1211C43.9241 23.0187 44.5366 22.3751 44.5366 21.5413C44.5366 21.0732 44.3324 20.6636 44.0116 20.3564C44.7991 20.2541 45.4263 19.6104 45.4263 18.7766C45.4263 18.3085 45.2221 17.899 44.9012 17.6064C45.6888 17.504 46.3159 16.8604 46.3159 16.0266C46.3159 15.5585 46.1117 15.1489 45.7909 14.8563C46.5784 14.7539 47.2055 14.1103 47.2055 13.2765C47.2055 12.8084 47.0014 12.3988 46.6805 12.1063C47.4681 12.0039 48.0952 11.3603 48.0952 10.5265C48.0952 10.0584 47.891 9.64878 47.5701 9.35622C48.3577 9.25383 48.9848 8.6102 48.9848 7.7764C48.9848 7.30831 48.7806 6.89873 48.4598 6.60617C49.2473 6.50377 49.8744 5.86014 49.8744 5.02635C49.8744 4.55825 49.6703 4.14867 49.364 3.85611C50.1515 3.75372 50.7641 3.09546 50.7641 2.27629C50.7641 1.38399 50.0349 0.652588 49.1452 0.652588C48.2556 0.652588 47.5264 1.38399 47.5264 2.27629C47.5264 2.74439 47.7306 3.15397 48.0368 3.44653H48.066Z" fill="#FF6A3D" fill-opacity="0.7"/>
<path d="M51.5026 4.4403C50.7296 4.55733 50.1171 5.20096 50.1171 6.02012C50.1171 6.47359 50.3067 6.88317 50.613 7.19036C49.84 7.30738 49.2275 7.95101 49.2275 8.77018C49.2275 9.22365 49.4171 9.63323 49.7233 9.94042C48.9504 10.0574 48.3378 10.7011 48.3378 11.5202C48.3378 11.9737 48.5274 12.3833 48.8337 12.6905C48.0607 12.8075 47.4482 13.4511 47.4482 14.2703C47.4482 14.7238 47.6378 15.1333 47.944 15.4405C47.1711 15.5576 46.5585 16.2012 46.5585 17.0203C46.5585 17.4738 46.7481 17.8834 47.0544 18.1906C46.2814 18.3076 45.6689 18.9512 45.6689 19.7704C45.6689 20.2239 45.8585 20.6335 46.1648 20.9406C45.3918 21.0577 44.7793 21.7013 44.7793 22.5205C44.7793 22.9739 44.9689 23.3835 45.2751 23.6907C44.5022 23.8077 43.8896 24.4514 43.8896 25.2705C43.8896 25.724 44.0792 26.1336 44.3855 26.4408C43.6125 26.5578 43 27.2014 43 28.0206C43 28.9129 43.7292 29.6443 44.6188 29.6443C45.5085 29.6443 46.2377 28.9129 46.2377 28.0206C46.2377 27.5671 46.0481 27.1575 45.7418 26.8503C46.5148 26.7333 47.1273 26.0897 47.1273 25.2705C47.1273 24.817 46.9377 24.4075 46.6315 24.1003C47.4044 23.9833 48.017 23.3396 48.017 22.5205C48.017 22.067 47.8274 21.6574 47.5211 21.3502C48.2941 21.2332 48.9066 20.5896 48.9066 19.7704C48.9066 19.3169 48.717 18.9074 48.4107 18.6002C49.1837 18.4831 49.7962 17.8395 49.7962 17.0203C49.7962 16.5669 49.6066 16.1573 49.3004 15.8501C50.0733 15.7331 50.6859 15.0895 50.6859 14.2703C50.6859 13.8168 50.4963 13.4072 50.19 13.1001C50.963 12.983 51.5755 12.3394 51.5755 11.5202C51.5755 11.0668 51.3859 10.6572 51.0796 10.35C51.8526 10.233 52.4651 9.58934 52.4651 8.77018C52.4651 8.31671 52.2756 7.90713 51.9693 7.59994C52.7422 7.48292 53.3548 6.83929 53.3548 6.02012C53.3548 5.56666 53.1652 5.15707 52.8589 4.84989C53.6319 4.73286 54.2444 4.08923 54.2444 3.27007C54.2444 2.37776 53.5152 1.64636 52.6256 1.64636C51.7359 1.64636 51.0067 2.37776 51.0067 3.27007C51.0067 3.72353 51.1963 4.13312 51.5026 4.4403Z" fill="#FF6A3D" fill-opacity="0.7"/>
<path d="M54.8989 5.68188C54.1114 5.7989 53.4989 6.44253 53.4989 7.2617C53.4989 7.72979 53.703 8.13938 54.0093 8.43194C53.2218 8.54896 52.6092 9.19259 52.6092 10.0118C52.6092 10.4798 52.8134 10.8894 53.1197 11.182C52.3321 11.299 51.7196 11.9426 51.7196 12.7618C51.7196 13.2299 51.9238 13.6395 52.23 13.932C51.4425 14.0491 50.83 14.6927 50.83 15.5119C50.83 15.98 51.0341 16.3895 51.3404 16.6821C50.5529 16.7845 49.9403 17.4428 49.9403 18.2619C49.9403 18.73 50.1445 19.1396 50.4508 19.4322C49.6632 19.5346 49.0507 20.1928 49.0507 21.012C49.0507 21.4801 49.2549 21.8897 49.5611 22.1822C48.7736 22.2846 48.161 22.9429 48.161 23.762C48.161 24.2301 48.3652 24.6397 48.6715 24.9323C47.8839 25.0493 47.2568 25.6929 47.2568 26.5121C47.2568 26.9802 47.461 27.3898 47.7673 27.697C46.9797 27.7994 46.3672 28.4576 46.3672 29.2768C46.3672 30.1691 47.0964 30.9005 47.986 30.9005C48.8757 30.9005 49.6049 30.1691 49.6049 29.2768C49.6049 28.8087 49.4007 28.3991 49.0944 28.1065C49.882 28.0041 50.5091 27.3459 50.5091 26.5267C50.5091 26.0586 50.3049 25.649 49.9987 25.3419C50.7862 25.2248 51.3987 24.5812 51.3987 23.762C51.3987 23.2939 51.1946 22.8844 50.8883 22.5918C51.6758 22.4894 52.2884 21.8311 52.2884 21.012C52.2884 20.5439 52.0842 20.1343 51.7779 19.8417C52.5655 19.7393 53.178 19.0811 53.178 18.2619C53.178 17.7938 52.9738 17.3842 52.6676 17.0917C53.4551 16.9893 54.0676 16.331 54.0676 15.5119C54.0676 15.0438 53.8635 14.6342 53.5572 14.3416C54.3447 14.2246 54.9573 13.581 54.9573 12.7618C54.9573 12.2937 54.7531 11.8841 54.4468 11.5916C55.2344 11.4746 55.8469 10.8309 55.8469 10.0118C55.8469 9.54366 55.6427 9.13408 55.3365 8.84152C56.124 8.72449 56.7366 8.08086 56.7366 7.2617C56.7366 6.7936 56.5324 6.38402 56.2261 6.09146C57.0137 5.97444 57.6262 5.33081 57.6262 4.51164C57.6262 3.61934 56.897 2.88794 56.0073 2.88794C55.1177 2.88794 54.3885 3.61934 54.3885 4.51164C54.3885 4.97974 54.5927 5.38932 54.8989 5.68188Z" fill="#FF6A3D" fill-opacity="0.7"/>
<path d="M58.195 7.14577C57.4075 7.26279 56.7804 7.90642 56.7804 8.74022C56.7804 9.20831 56.97 9.61789 57.2908 9.91045C56.5033 10.0275 55.8907 10.6857 55.8907 11.5049C55.8907 11.973 56.0949 12.3826 56.4012 12.6898C55.6136 12.8068 54.9865 13.4504 54.9865 14.2842C54.9865 14.7523 55.1907 15.1619 55.497 15.4691C54.7094 15.5861 54.0823 16.2297 54.0823 17.0635C54.0823 17.5316 54.2865 17.9558 54.5928 18.2484C53.7906 18.3508 53.1635 19.009 53.1635 19.8428C53.1635 20.3109 53.3677 20.7351 53.6885 21.0277C52.8864 21.1301 52.2593 21.7884 52.2593 22.6222C52.2593 23.0902 52.4635 23.5145 52.7843 23.8216C51.9822 23.924 51.3405 24.5823 51.3405 25.4161C51.3405 25.8842 51.5446 26.3084 51.8655 26.6156C51.0488 26.718 50.4071 27.3762 50.4071 28.2247C50.4071 28.7074 50.6258 29.1316 50.9467 29.4242C50.13 29.5119 49.4883 30.1848 49.4883 31.0332C49.4883 31.9402 50.2175 32.6716 51.1217 32.6716C52.0259 32.6716 52.7551 31.9402 52.7551 31.0332C52.7551 30.5505 52.5364 30.1263 52.2155 29.8337C53.0322 29.746 53.6739 29.0731 53.6739 28.2247C53.6739 27.7419 53.4698 27.3177 53.1343 27.0252C53.951 26.9228 54.5782 26.2645 54.5782 25.4307C54.5782 24.9626 54.374 24.5384 54.0531 24.2312C54.8553 24.1288 55.497 23.4706 55.497 22.6368C55.497 22.1687 55.2928 21.7445 54.9719 21.4519C55.7741 21.3495 56.4012 20.6913 56.4012 19.8575C56.4012 19.3894 56.197 18.9652 55.8907 18.6726C56.6929 18.5702 57.32 17.9119 57.32 17.0782C57.32 16.6101 57.1158 16.2005 56.8095 15.8933C57.5971 15.7763 58.2242 15.1326 58.2242 14.2988C58.2242 13.8307 58.02 13.4212 57.7138 13.114C58.5013 12.997 59.1284 12.3533 59.1284 11.5195C59.1284 11.0514 58.9388 10.6419 58.618 10.3493C59.4055 10.2323 60.0181 9.57401 60.0181 8.75484C60.0181 8.28675 59.8139 7.87717 59.5076 7.56998C60.2952 7.45295 60.9077 6.80932 60.9077 5.99016C60.9077 5.08323 60.1785 4.36646 59.2889 4.36646C58.3992 4.36646 57.67 5.09785 57.67 5.99016C57.67 6.45825 57.8596 6.86784 58.1805 7.1604L58.195 7.14577Z" fill="#FF6A3D" fill-opacity="0.7"/>
<path d="M61.4086 8.82499C60.6065 8.92738 59.9648 9.58564 59.9648 10.4341C59.9648 10.9022 60.1689 11.3264 60.4898 11.6336C59.6877 11.7359 59.046 12.3942 59.046 13.2426C59.046 13.7254 59.2647 14.1496 59.5856 14.4421C58.7689 14.5299 58.1272 15.2028 58.1272 16.0366C58.1272 16.5193 58.3459 16.9435 58.6668 17.2361C57.8355 17.3238 57.1938 17.9967 57.1938 18.8451C57.1938 19.3279 57.4125 19.7521 57.7334 20.0446C56.9021 20.1324 56.2458 20.8053 56.2458 21.6683C56.2458 22.1657 56.4646 22.5899 56.8 22.8971C55.9687 22.9702 55.3124 23.6577 55.3124 24.5062C55.3124 25.0035 55.5458 25.4277 55.8812 25.7349C55.0353 25.7934 54.3499 26.4956 54.3499 27.3586C54.3499 27.856 54.5832 28.2948 54.9332 28.602C54.0728 28.6605 53.3873 29.3626 53.3873 30.2403C53.3873 30.7523 53.6352 31.1911 53.9998 31.4983C53.1102 31.5276 52.4102 32.2443 52.4102 33.1367C52.4102 34.029 53.1539 34.7896 54.0582 34.7896C54.9624 34.7896 55.7062 34.0436 55.7062 33.1367C55.7062 32.6247 55.4583 32.1858 55.0936 31.8786C55.9833 31.8494 56.6833 31.1326 56.6833 30.2403C56.6833 29.743 56.45 29.3041 56.1 28.9969C56.9604 28.9384 57.6459 28.2363 57.6459 27.3586C57.6459 26.8613 57.4125 26.4224 57.0625 26.1299C57.9084 26.0714 58.5793 25.3692 58.5793 24.5062C58.5793 24.0234 58.3605 23.5992 58.0251 23.292C58.871 23.2189 59.5272 22.5314 59.5272 21.6683C59.5272 21.1856 59.3085 20.7614 58.973 20.4542C59.7898 20.3664 60.446 19.6936 60.446 18.8451C60.446 18.3624 60.2273 17.9382 59.8918 17.631C60.7086 17.5432 61.3649 16.8704 61.3649 16.0219C61.3649 15.5392 61.1607 15.1296 60.8252 14.8224C61.642 14.7347 62.2837 14.0618 62.2837 13.2134C62.2837 12.7453 62.0795 12.3211 61.7586 12.0139C62.5608 11.9115 63.2025 11.2532 63.2025 10.4048C63.2025 9.93671 62.9983 9.5125 62.6774 9.20531C63.4796 9.10292 64.1067 8.44466 64.1067 7.61087C64.1067 6.70393 63.3775 5.97253 62.4733 5.97253C61.569 5.97253 60.8398 6.70393 60.8398 7.61087C60.8398 8.07896 61.044 8.50317 61.3649 8.79573L61.4086 8.82499Z" fill="#FF6A3D" fill-opacity="0.7"/>
<path d="M64.5128 10.7276C63.6815 10.8154 63.0106 11.4882 63.0106 12.3513C63.0106 12.834 63.2294 13.2729 63.5648 13.5654C62.7335 13.6386 62.0627 14.3261 62.0627 15.1891C62.0627 15.6865 62.296 16.1107 62.6314 16.4179C61.7856 16.491 61.1147 17.1785 61.1147 18.0416C61.1147 18.5389 61.348 18.9778 61.6981 19.285C60.8376 19.3435 60.1521 20.0456 60.1521 20.9233C60.1521 21.4353 60.4001 21.8741 60.7501 22.1667C59.875 22.2105 59.175 22.9127 59.175 23.805C59.175 24.317 59.4229 24.7704 59.7875 25.063C58.8979 25.0776 58.1687 25.809 58.1687 26.716C58.1687 27.2426 58.4312 27.6814 58.8104 27.9886C57.8916 27.9886 57.1478 28.7346 57.1478 29.6562C57.1478 30.212 57.4395 30.6801 57.8478 30.9727C57.8187 30.9727 57.7895 30.9581 57.7603 30.9581C56.8415 30.9581 56.0977 31.7041 56.0977 32.6257C56.0977 33.2254 56.4332 33.7227 56.8999 34.0153C56.8269 34.0153 56.754 33.9714 56.6665 33.9714C55.7477 33.9714 55.0039 34.7175 55.0039 35.639C55.0039 36.5606 55.7477 37.3066 56.6665 37.3066C57.5853 37.3066 58.3291 36.5606 58.3291 35.639C58.3291 35.0393 57.9937 34.5419 57.527 34.2494C57.5999 34.2494 57.6728 34.2932 57.7603 34.2932C58.6791 34.2932 59.4229 33.5472 59.4229 32.6257C59.4229 32.0698 59.1312 31.6017 58.7229 31.3091C58.752 31.3091 58.7812 31.3238 58.8104 31.3238C59.7292 31.3238 60.473 30.5777 60.473 29.6562C60.473 29.1296 60.2105 28.6761 59.8313 28.3689C60.7355 28.3689 61.4793 27.6229 61.4793 26.716C61.4793 26.204 61.2314 25.7505 60.8668 25.458C61.7564 25.4433 62.4856 24.7119 62.4856 23.805C62.4856 23.293 62.2377 22.8542 61.8877 22.5616C62.7627 22.5177 63.4627 21.8156 63.4627 20.9233C63.4627 20.4259 63.2294 19.9871 62.8794 19.6799C63.7398 19.6214 64.4253 18.9193 64.4253 18.0416C64.4253 17.5442 64.192 17.12 63.8565 16.8128C64.7024 16.7397 65.3733 16.0522 65.3733 15.1891C65.3733 14.7064 65.1545 14.2676 64.8191 13.975C65.6504 13.9019 66.3212 13.2143 66.3212 12.3513C66.3212 11.8686 66.1025 11.4297 65.767 11.1372C66.5983 11.0494 67.2546 10.3765 67.2546 9.5281C67.2546 8.62117 66.5254 7.88977 65.6212 7.88977C64.717 7.88977 63.9878 8.62117 63.9878 9.5281C63.9878 10.0108 64.2065 10.435 64.542 10.7422L64.5128 10.7276Z" fill="#FF6A3D" fill-opacity="0.7"/>
<path d="M67.5056 12.8218C66.6306 12.8656 65.9451 13.5824 65.9451 14.4601C65.9451 14.9721 66.1784 15.4109 66.5431 15.7181C65.668 15.762 64.968 16.4787 64.968 17.371C64.968 17.883 65.2159 18.3219 65.5805 18.6291C64.6909 18.6583 63.9616 19.3751 63.9616 20.282C63.9616 20.8086 64.2242 21.2475 64.6034 21.5546C63.6845 21.5546 62.9553 22.3007 62.9553 23.2222C62.9553 23.7781 63.2324 24.2316 63.6554 24.5387C63.6262 24.5387 63.6116 24.5241 63.5825 24.5241C62.6637 24.5241 61.9199 25.2701 61.9199 26.1917C61.9199 26.7768 62.2407 27.2596 62.6928 27.5521C62.6345 27.5521 62.5762 27.5229 62.5178 27.5229C61.599 27.5229 60.8552 28.2689 60.8552 29.1904C60.8552 29.8048 61.2052 30.3168 61.7011 30.6094C61.599 30.5947 61.5115 30.5508 61.4094 30.5508C60.4906 30.5508 59.7468 31.2969 59.7468 32.2184C59.7468 32.8767 60.126 33.4179 60.6802 33.6959C60.5489 33.652 60.4031 33.6081 60.2573 33.6081C59.3385 33.6081 58.5801 34.3541 58.5801 35.2903C58.5801 36.2265 59.3239 36.9725 60.2573 36.9725C61.1906 36.9725 61.9344 36.2265 61.9344 35.2903C61.9344 34.632 61.5553 34.0762 61.0011 33.7983C61.1323 33.8275 61.2636 33.886 61.424 33.886C62.3428 33.886 63.0866 33.14 63.0866 32.2184C63.0866 31.6041 62.7366 31.0774 62.2407 30.7995C62.3428 30.8141 62.4303 30.858 62.5324 30.858C63.4512 30.858 64.195 30.112 64.195 29.1904C64.195 28.6053 63.8741 28.1226 63.422 27.83C63.4804 27.83 63.5387 27.8593 63.597 27.8593C64.5158 27.8593 65.2596 27.1133 65.2596 26.1917C65.2596 25.6358 64.9825 25.1824 64.5596 24.8752C64.5888 24.8752 64.6034 24.8898 64.6325 24.8898C65.5513 24.8898 66.2951 24.1438 66.2951 23.2222C66.2951 22.6956 66.0326 22.2568 65.668 21.9496C66.5868 21.9496 67.316 21.2036 67.316 20.282C67.316 19.77 67.0681 19.3312 66.7035 19.024C67.5931 18.9948 68.3223 18.278 68.3223 17.371C68.3223 16.8591 68.089 16.4202 67.7244 16.113C68.5994 16.0692 69.2995 15.3524 69.2995 14.4601C69.2995 13.9481 69.0661 13.5239 68.7015 13.2167C69.562 13.1728 70.262 12.4561 70.262 11.5784C70.262 10.7007 69.5182 9.92542 68.614 9.92542C67.7098 9.92542 66.966 10.6714 66.966 11.5784C66.966 12.0757 67.1993 12.5146 67.5494 12.8218H67.5056Z" fill="#FF6A3D" fill-opacity="0.7"/>
<path d="M69.7232 13.8568C69.7232 14.3834 69.9857 14.8222 70.3649 15.1294C69.4461 15.1294 68.7169 15.8755 68.7169 16.797C68.7169 17.3383 68.994 17.8063 69.4023 18.1135C69.3732 18.1135 69.3586 18.1135 69.3294 18.1135C68.4106 18.1135 67.6668 18.8596 67.6668 19.7811C67.6668 20.3516 67.9731 20.8343 68.4106 21.1269C68.3523 21.1269 68.3085 21.0976 68.2648 21.0976C67.346 21.0976 66.6022 21.8437 66.6022 22.7652C66.6022 23.365 66.9376 23.8623 67.4043 24.1549C67.3168 24.1549 67.2584 24.111 67.1709 24.111C66.2521 24.111 65.5083 24.857 65.5083 25.7786C65.5083 26.4076 65.8584 26.9196 66.3688 27.2121C66.2667 27.1975 66.1646 27.1536 66.048 27.1536C65.1292 27.1536 64.3708 27.8996 64.3708 28.8358C64.3708 29.4941 64.7645 30.0646 65.3187 30.3279C65.1729 30.284 65.0271 30.2401 64.8666 30.2401C63.9478 30.2401 63.1895 30.9861 63.1895 31.9223C63.1895 32.8585 63.9332 33.6045 64.8666 33.6045C65.8 33.6045 66.5438 32.8585 66.5438 31.9223C66.5438 31.2641 66.15 30.6936 65.5958 30.4303C65.7417 30.4742 65.8875 30.518 66.048 30.518C66.9668 30.518 67.7251 29.772 67.7251 28.8358C67.7251 28.2068 67.3751 27.6802 66.8647 27.4023C66.9668 27.4169 67.0688 27.4608 67.1855 27.4608C68.1043 27.4608 68.8481 26.7148 68.8481 25.7932C68.8481 25.1935 68.5127 24.6961 68.046 24.3889C68.1189 24.3889 68.1918 24.4328 68.2793 24.4328C69.1981 24.4328 69.9419 23.6868 69.9419 22.7652C69.9419 22.1947 69.6357 21.712 69.1981 21.4195C69.2565 21.4195 69.3002 21.4487 69.344 21.4487C70.2628 21.4487 71.0066 20.7027 71.0066 19.7811C71.0066 19.2399 70.7295 18.7718 70.3211 18.4646C70.3503 18.4646 70.3649 18.4646 70.394 18.4646C71.3129 18.4646 72.0566 17.7186 72.0566 16.797C72.0566 16.2704 71.7941 15.8316 71.4149 15.5244C72.3337 15.5244 73.063 14.7784 73.063 13.8568C73.063 12.9352 72.3192 12.1892 71.4004 12.1892C70.4816 12.1892 69.7378 12.9352 69.7378 13.8568H69.7232Z" fill="#FF6A3D" fill-opacity="0.7"/>
<path d="M72.3668 16.3066C72.3668 16.9064 72.6877 17.3891 73.1544 17.6963C73.0814 17.6963 73.0231 17.6524 72.9356 17.6524C72.0168 17.6524 71.273 18.3984 71.273 19.32C71.273 19.9344 71.623 20.4464 72.1189 20.7389C72.0168 20.7243 71.9293 20.6804 71.8272 20.6804C70.9084 20.6804 70.1646 21.4264 70.1646 22.348C70.1646 22.9916 70.5438 23.5329 71.0688 23.8108C70.9376 23.7815 70.8209 23.7376 70.6896 23.7376C69.7708 23.7376 69.027 24.4837 69.027 25.4052C69.027 26.0781 69.4354 26.6632 70.0187 26.9265C69.8583 26.868 69.6979 26.8241 69.5229 26.8241C68.6041 26.8241 67.8457 27.5702 67.8457 28.5064C67.8457 29.4426 68.5895 30.1886 69.5229 30.1886C70.4563 30.1886 71.2001 29.4426 71.2001 28.5064C71.2001 27.8188 70.7917 27.2484 70.2083 26.9851C70.3688 27.0436 70.5292 27.0875 70.7042 27.0875C71.623 27.0875 72.3668 26.3414 72.3668 25.4199C72.3668 24.7762 71.9876 24.235 71.4626 23.9571C71.5938 23.9863 71.7105 24.0302 71.8418 24.0302C72.7606 24.0302 73.5044 23.2842 73.5044 22.3626C73.5044 21.7482 73.1544 21.2216 72.6585 20.9437C72.7606 20.9583 72.8481 21.0022 72.9502 21.0022C73.869 21.0022 74.6128 20.2562 74.6128 19.3346C74.6128 18.7349 74.2919 18.2522 73.8252 17.945C73.8981 17.945 73.9565 17.9889 74.044 17.9889C74.9628 17.9889 75.7066 17.2428 75.7066 16.3213C75.7066 15.3997 74.9628 14.6537 74.044 14.6537C73.1252 14.6537 72.3814 15.3997 72.3814 16.3213L72.3668 16.3066Z" fill="#FF6A3D" fill-opacity="0.7"/>
<path d="M74.8475 18.9317C74.8475 19.59 75.2412 20.1459 75.7809 20.4238C75.635 20.3799 75.5038 20.336 75.3579 20.336C74.4391 20.336 73.6953 21.0821 73.6953 22.0036C73.6953 22.9252 74.4391 23.6712 75.3579 23.6712C76.2767 23.6712 77.0205 22.9252 77.0205 22.0036C77.0205 21.3454 76.6267 20.7895 76.0871 20.5116C76.233 20.5555 76.3642 20.5993 76.5101 20.5993C77.4289 20.5993 78.1727 19.8533 78.1727 18.9317C78.1727 18.0102 77.4289 17.2642 76.5101 17.2642C75.5913 17.2642 74.8475 18.0102 74.8475 18.9317Z" fill="#FF6A3D" fill-opacity="0.7"/>
<path d="M77.1543 21.7208C77.1543 22.6421 77.8979 23.4026 78.831 23.4026C79.7641 23.4026 80.5077 22.6567 80.5077 21.7208C80.5077 20.7849 79.7641 20.0391 78.831 20.0391C77.8979 20.0391 77.1543 20.7849 77.1543 21.7208Z" fill="#FF6A3D" fill-opacity="0.7"/>
<path d="M79.2559 24.6563C79.2559 25.5923 80.014 26.3527 80.9472 26.3527C81.8803 26.3527 82.6385 25.5923 82.6385 24.6563C82.6385 23.7204 81.8803 22.96 80.9472 22.96C80.014 22.96 79.2559 23.7204 79.2559 24.6563Z" fill="#FF6A3D" fill-opacity="0.7"/>
<path d="M81.2111 27.4556C81.0215 26.7242 80.3944 26.1684 79.5922 26.1684C78.688 26.1684 77.9734 26.8851 77.915 27.7628C77.7838 26.9729 77.1129 26.3439 76.2816 26.3439C75.3482 26.3439 74.5898 27.1045 74.5898 28.0407C74.5898 28.9769 75.3482 29.7376 76.2816 29.7376C77.215 29.7376 77.9005 29.0354 77.9442 28.1431C78.0755 28.9477 78.7463 29.562 79.5776 29.562C80.4089 29.562 81.0944 28.933 81.2257 28.1285C81.4153 28.8745 82.0569 29.4304 82.8445 29.4304C83.7925 29.4304 84.5509 28.6697 84.5509 27.7189C84.5509 26.7681 83.7925 26.0074 82.8445 26.0074C81.9986 26.0074 81.3277 26.6365 81.1965 27.4556H81.2111Z" fill="#FF6A3D" fill-opacity="0.7"/>
<path d="M82.9738 30.3042C82.7113 29.6898 82.1134 29.2656 81.3987 29.2656C80.6258 29.2656 79.9986 29.7922 79.7799 30.4943C79.532 29.8361 78.9194 29.368 78.1756 29.368C77.3589 29.368 76.7026 29.9531 76.5276 30.7284C76.3089 30.0262 75.6817 29.5143 74.9233 29.5143C74.0337 29.5143 73.3337 30.2018 73.2462 31.0795C73.0857 30.3042 72.444 29.7044 71.6273 29.7044C70.6939 29.7044 69.9355 30.4651 69.9355 31.4013C69.9355 32.3375 70.6939 33.0981 71.6273 33.0981C72.5024 33.0981 73.2024 32.4106 73.2899 31.5475C73.4503 32.3375 74.1066 32.9372 74.9233 32.9372C75.7401 32.9372 76.3818 32.3521 76.5568 31.5914C76.7755 32.2936 77.4027 32.8202 78.1756 32.8202C78.9486 32.8202 79.5903 32.2936 79.7945 31.5768C80.0424 32.2204 80.6549 32.6885 81.3841 32.6885C82.1134 32.6885 82.7405 32.2204 82.9738 31.5622C83.2363 32.1765 83.8489 32.6154 84.5635 32.6154C85.5115 32.6154 86.299 31.8401 86.299 30.8893C86.299 29.9385 85.5261 29.1486 84.5635 29.1486C83.8197 29.1486 83.1926 29.6313 82.9592 30.3042H82.9738Z" fill="#FF6A3D" fill-opacity="0.7"/>
<path d="M84.5209 33.4774C84.2292 32.907 83.6605 32.512 82.9896 32.512C82.275 32.512 81.6624 32.9508 81.3999 33.5798C81.1228 33.0094 80.5395 32.5998 79.8686 32.5998C79.1394 32.5998 78.5268 33.0679 78.2789 33.7115C78.0018 33.1117 77.4184 32.6875 76.7184 32.6875C75.96 32.6875 75.3329 33.1849 75.1141 33.8724C74.8516 33.2434 74.2537 32.8046 73.539 32.8046C72.7369 32.8046 72.0806 33.3751 71.9056 34.1357C71.6868 33.4482 71.0597 32.9508 70.3013 32.9508C69.4263 32.9508 68.7408 33.6091 68.6387 34.4575C68.4637 33.6969 67.822 33.1264 67.0199 33.1264C66.0865 33.1264 65.3281 33.887 65.3281 34.8232C65.3281 35.7594 66.0865 36.5201 67.0199 36.5201C67.8804 36.5201 68.5658 35.8618 68.6825 35.028C68.8575 35.7887 69.4992 36.3738 70.3159 36.3738C71.1326 36.3738 71.7598 35.8033 71.9494 35.0573C72.1681 35.7448 72.7952 36.2568 73.5536 36.2568C74.312 36.2568 74.9245 35.7594 75.1579 35.0865C75.4204 35.7155 76.0329 36.1544 76.7476 36.1544C77.4622 36.1544 78.0893 35.6863 78.3372 35.0426C78.6143 35.6424 79.1977 36.0666 79.8977 36.0666C80.5978 36.0666 81.2249 35.6278 81.4874 35.0134C81.7645 35.5985 82.3479 35.9935 83.0333 35.9935C83.7188 35.9935 84.3313 35.5692 84.6084 34.9695C84.9001 35.54 85.4689 35.9349 86.1398 35.9349C87.0878 35.9349 87.8753 35.1597 87.8753 34.1942C87.8753 33.2288 87.1023 32.4535 86.1398 32.4535C85.4397 32.4535 84.8418 32.8777 84.5647 33.4774H84.5209Z" fill="#FF6A3D" fill-opacity="0.7"/>
<path d="M85.8314 36.7901C85.5398 36.2488 84.9856 35.8685 84.3293 35.8685C83.673 35.8685 83.0605 36.2781 82.7834 36.8632C82.4917 36.3073 81.9375 35.927 81.2812 35.927C80.6249 35.927 79.9978 36.3366 79.7207 36.9363C79.4436 36.3805 78.8748 35.9855 78.2039 35.9855C77.533 35.9855 76.9059 36.4097 76.6434 37.0095C76.3663 36.439 75.7829 36.044 75.1121 36.044C74.3974 36.044 73.7849 36.4829 73.5224 37.0972C73.2453 36.5267 72.6619 36.1172 71.9765 36.1172C71.2472 36.1172 70.6201 36.5853 70.3722 37.2289C70.0951 36.6291 69.5117 36.2196 68.8117 36.2196C68.0241 36.2196 67.3824 36.7608 67.1783 37.4922C66.9449 36.8486 66.3324 36.3805 65.6032 36.3805C64.7427 36.3805 64.0718 37.0241 63.9551 37.8579C63.7801 37.1119 63.1384 36.5414 62.3363 36.5414C61.4029 36.5414 60.6445 37.302 60.6445 38.2382C60.6445 39.1744 61.4029 39.9351 62.3363 39.9351C63.1968 39.9351 63.8676 39.2914 63.9843 38.4576C64.1593 39.2037 64.801 39.7742 65.6032 39.7742C66.4053 39.7742 67.0032 39.2475 67.2074 38.5454C67.4554 39.2183 68.0679 39.6864 68.8117 39.6864C69.5555 39.6864 70.168 39.2183 70.4159 38.5747C70.693 39.1744 71.2764 39.584 71.9765 39.584C72.6765 39.584 73.3036 39.1452 73.5661 38.5308C73.8432 39.1013 74.4266 39.5109 75.1121 39.5109C75.7975 39.5109 76.4246 39.0866 76.6872 38.4723C76.9643 39.0428 77.533 39.4377 78.2039 39.4377C78.8748 39.4377 79.4873 39.0281 79.7644 38.4284C80.0415 38.9842 80.6103 39.3792 81.2812 39.3792C81.952 39.3792 82.5354 38.9696 82.8125 38.3991C83.1042 38.955 83.6584 39.3499 84.3293 39.3499C85.0002 39.3499 85.5689 38.955 85.8606 38.3991C86.1523 38.9404 86.7065 39.3207 87.3628 39.3207C88.3254 39.3207 89.0983 38.5454 89.0983 37.58C89.0983 36.6145 88.3254 35.8392 87.3628 35.8392C86.6919 35.8392 86.1085 36.2342 85.8314 36.8047V36.7901Z" fill="#FF6A3D" fill-opacity="0.7"/>
<path d="M86.9257 40.1647C86.6195 39.6527 86.0944 39.287 85.4527 39.287C84.811 39.287 84.2422 39.6674 83.9506 40.2086C83.6443 39.682 83.1047 39.3163 82.463 39.3163C81.8213 39.3163 81.2379 39.6966 80.9462 40.2525C80.6545 39.7259 80.1003 39.3456 79.4586 39.3456C78.8169 39.3456 78.219 39.7405 77.9273 40.311C77.6356 39.7698 77.0814 39.3894 76.4397 39.3894C75.798 39.3894 75.1855 39.799 74.9084 40.3695C74.6167 39.8137 74.0625 39.4333 73.4062 39.4333C72.7499 39.4333 72.1374 39.8429 71.8603 40.428C71.5686 39.8722 71.0144 39.4772 70.3435 39.4772C69.6726 39.4772 69.0455 39.9014 68.7684 40.5012C68.4767 39.9307 67.9079 39.5357 67.2371 39.5357C66.5224 39.5357 65.9099 39.9746 65.6474 40.6036C65.3703 40.0331 64.7869 39.6235 64.1015 39.6235C63.3577 39.6235 62.7305 40.1062 62.4826 40.7791C62.2201 40.1647 61.6221 39.7405 60.9075 39.7405C59.9595 39.7405 59.2012 40.5158 59.2012 41.452C59.2012 42.3882 59.9741 43.1635 60.9075 43.1635C61.6513 43.1635 62.2639 42.6807 62.4972 42.0225C62.7597 42.6369 63.3723 43.0757 64.0869 43.0757C64.8015 43.0757 65.414 42.6368 65.6766 42.0078C65.9537 42.5783 66.537 42.9879 67.2225 42.9879C67.9079 42.9879 68.5205 42.5637 68.7976 41.964C69.0893 42.5345 69.658 42.9294 70.3289 42.9294C70.9998 42.9294 71.6123 42.5198 71.8894 41.9347C72.1811 42.4906 72.7353 42.8855 73.4062 42.8855C74.0771 42.8855 74.6604 42.4759 74.9375 41.9055C75.2292 42.4613 75.7834 42.8416 76.4397 42.8416C77.096 42.8416 77.6648 42.4467 77.9564 41.8908C78.2481 42.4321 78.8023 42.8124 79.4586 42.8124C80.1149 42.8124 80.6691 42.4321 80.9608 41.8762C81.2525 42.4174 81.8067 42.7831 82.463 42.7831C83.1193 42.7831 83.6589 42.4028 83.9651 41.8762C84.2714 42.4028 84.811 42.7685 85.4527 42.7685C86.0944 42.7685 86.6486 42.4028 86.9403 41.8762C87.2466 42.3882 87.7862 42.7539 88.4279 42.7539C89.3905 42.7539 90.178 41.964 90.178 40.9985C90.178 40.0331 89.3905 39.2432 88.4279 39.2432C87.7716 39.2432 87.232 39.6089 86.9257 40.1501V40.1647Z" fill="#FF6A3D" fill-opacity="0.7"/>
</g>
</svg>
