<svg width="12" height="13" viewBox="0 0 12 13" fill="none" xmlns="http://www.w3.org/2000/svg">
<mask id="path-1-outside-1_305_784" maskUnits="userSpaceOnUse" x="0.078125" y="-0.189453" width="12" height="13" fill="black">
<rect fill="white" x="0.078125" y="-0.189453" width="12" height="13"/>
<path d="M2.6047 11.1232C2.3656 11.1232 2.16328 11.0527 1.99775 10.9117C1.83835 10.7768 1.75865 10.6021 1.75865 10.3875C1.75865 10.2772 1.78011 10.176 1.82302 10.084C1.86594 9.98595 1.92725 9.89705 2.00695 9.81735L5.0785 6.58027L2.00695 3.32479C1.84141 3.14086 1.75865 2.94468 1.75865 2.73623C1.75865 2.52165 1.83528 2.34999 1.98856 2.22124C2.14796 2.08636 2.34721 2.01892 2.58631 2.01892C2.84381 2.01892 3.04919 2.10475 3.20246 2.27642L6.22803 5.58707L9.24441 2.27642C9.40994 2.10475 9.61226 2.01892 9.85136 2.01892C10.0843 2.01892 10.2775 2.08636 10.4307 2.22124C10.584 2.34999 10.6606 2.52165 10.6606 2.73623C10.6606 2.94468 10.5779 3.14086 10.4123 3.32479L7.34078 6.58027L10.4031 9.81735C10.4828 9.89705 10.5441 9.98595 10.5871 10.084C10.6361 10.176 10.6606 10.2772 10.6606 10.3875C10.6606 10.596 10.5809 10.7707 10.4215 10.9117C10.2621 11.0527 10.0659 11.1232 9.83297 11.1232C9.58773 11.1232 9.38848 11.0374 9.23521 10.8657L6.22803 7.55507L3.19327 10.8657C3.03386 11.0374 2.83768 11.1232 2.6047 11.1232Z"/>
</mask>
<path d="M1.99775 10.9117L2.79288 9.97829L2.78979 9.97567L1.99775 10.9117ZM1.82302 10.084L2.93416 10.6026L2.94043 10.5891L2.94639 10.5755L1.82302 10.084ZM2.00695 9.81735L2.87398 10.6844L2.88535 10.673L2.89642 10.6613L2.00695 9.81735ZM5.0785 6.58027L5.96798 7.42426L6.76654 6.58265L5.97036 5.73879L5.0785 6.58027ZM2.00695 3.32479L1.09554 4.14505L1.10519 4.15577L1.11509 4.16626L2.00695 3.32479ZM1.98856 2.22124L2.77722 3.16013L2.78059 3.15728L1.98856 2.22124ZM3.20246 2.27641L2.28782 3.09306L2.29255 3.09836L2.29734 3.1036L3.20246 2.27641ZM6.22803 5.58707L5.32291 6.41425L6.22941 7.40617L7.13441 6.41288L6.22803 5.58707ZM9.24441 2.27641L8.36176 1.42529L8.34971 1.43778L8.33803 1.4506L9.24441 2.27641ZM10.4307 2.22124L9.62068 3.14174L9.63127 3.15105L9.64206 3.16012L10.4307 2.22124ZM10.4123 3.32479L11.3042 4.16626L11.3141 4.15577L11.3237 4.14505L10.4123 3.32479ZM7.34078 6.58027L6.44892 5.73879L5.65393 6.58139L6.45004 7.42292L7.34078 6.58027ZM10.4031 9.81735L9.5124 10.66L9.52408 10.6724L9.5361 10.6844L10.4031 9.81735ZM10.5871 10.084L9.4637 10.5755L9.48276 10.6191L9.50515 10.6611L10.5871 10.084ZM10.4215 10.9117L9.6091 9.99331L9.6091 9.99331L10.4215 10.9117ZM9.23521 10.8657L10.1499 10.049L10.1428 10.0413L9.23521 10.8657ZM6.22803 7.55507L7.13566 6.73064L6.23217 5.73596L5.32416 6.72652L6.22803 7.55507ZM3.19327 10.8657L4.09181 11.7001L4.09714 11.6943L3.19327 10.8657ZM2.6047 11.1232V9.89705C2.60672 9.89705 2.63445 9.89759 2.67714 9.91247C2.72146 9.92791 2.76188 9.95189 2.79288 9.97829L1.99775 10.9117L1.20262 11.8451C1.61259 12.1944 2.10533 12.3494 2.6047 12.3494V11.1232ZM1.99775 10.9117L2.78979 9.97567C2.83589 10.0147 2.89245 10.0795 2.93402 10.1706C2.97516 10.2608 2.98482 10.3399 2.98482 10.3875H1.75865H0.53248C0.53248 10.9513 0.762342 11.4726 1.20572 11.8477L1.99775 10.9117ZM1.75865 10.3875H2.98482C2.98482 10.4405 2.97345 10.5184 2.93416 10.6026L1.82302 10.084L0.711889 9.56551C0.586763 9.83364 0.53248 10.1139 0.53248 10.3875H1.75865ZM1.82302 10.084L2.94639 10.5755C2.92483 10.6248 2.89662 10.6617 2.87398 10.6844L2.00695 9.81735L1.13992 8.95032C0.957877 9.13236 0.807047 9.34711 0.699659 9.59257L1.82302 10.084ZM2.00695 9.81735L2.89642 10.6613L5.96798 7.42426L5.0785 6.58027L4.18902 5.73627L1.11747 8.97336L2.00695 9.81735ZM5.0785 6.58027L5.97036 5.73879L2.89881 2.48332L2.00695 3.32479L1.11509 4.16626L4.18664 7.42174L5.0785 6.58027ZM2.00695 3.32479L2.91835 2.50453C2.91249 2.49801 2.9309 2.51671 2.95047 2.56309C2.97132 2.61252 2.98482 2.67317 2.98482 2.73623H1.75865H0.53248C0.53248 3.30259 0.767447 3.7805 1.09554 4.14505L2.00695 3.32479ZM1.75865 2.73623H2.98482C2.98482 2.77689 2.97696 2.85417 2.93579 2.94639C2.89357 3.04096 2.83331 3.113 2.77722 3.16012L1.98856 2.22124L1.19989 1.28235C0.7473 1.66253 0.53248 2.18913 0.53248 2.73623H1.75865ZM1.98856 2.22124L2.78059 3.15728C2.74177 3.19013 2.69587 3.21564 2.65065 3.23095C2.60765 3.2455 2.58244 3.24509 2.58631 3.24509V2.01892V0.792751C2.10178 0.792751 1.60912 0.936074 1.19652 1.2852L1.98856 2.22124ZM2.58631 2.01892V3.24509C2.57793 3.24509 2.52936 3.24335 2.46067 3.21464C2.38864 3.18454 2.32887 3.13904 2.28782 3.09306L3.20246 2.27641L4.11711 1.45977C3.70207 0.994932 3.14685 0.792751 2.58631 0.792751V2.01892ZM3.20246 2.27641L2.29734 3.1036L5.32291 6.41425L6.22803 5.58707L7.13316 4.75988L4.10759 1.44923L3.20246 2.27641ZM6.22803 5.58707L7.13441 6.41288L10.1508 3.10223L9.24441 2.27641L8.33803 1.4506L5.32165 4.76126L6.22803 5.58707ZM9.24441 2.27641L10.1271 3.12754C10.1051 3.15029 10.0624 3.18524 9.99917 3.21208C9.93598 3.23889 9.88176 3.24509 9.85136 3.24509V2.01892V0.792751C9.28032 0.792751 8.75908 1.01325 8.36176 1.42529L9.24441 2.27641ZM9.85136 2.01892V3.24509C9.84906 3.24509 9.81675 3.2446 9.76668 3.22711C9.71425 3.2088 9.66299 3.17897 9.62068 3.14174L10.4307 2.22124L11.2408 1.30074C10.8321 0.94111 10.3377 0.792751 9.85136 0.792751V2.01892ZM10.4307 2.22124L9.64206 3.16012C9.58597 3.113 9.52571 3.04096 9.48349 2.94639C9.44232 2.85417 9.43446 2.77689 9.43446 2.73623H10.6606H11.8868C11.8868 2.18913 11.672 1.66253 11.2194 1.28235L10.4307 2.22124ZM10.6606 2.73623H9.43446C9.43446 2.67317 9.44796 2.61252 9.46881 2.56309C9.48838 2.51671 9.50679 2.49801 9.50093 2.50453L10.4123 3.32479L11.3237 4.14505C11.6518 3.7805 11.8868 3.30258 11.8868 2.73623H10.6606ZM10.4123 3.32479L9.52047 2.48332L6.44892 5.73879L7.34078 6.58027L8.23264 7.42174L11.3042 4.16626L10.4123 3.32479ZM7.34078 6.58027L6.45004 7.42292L9.5124 10.66L10.4031 9.81735L11.2939 8.97469L8.23152 5.73761L7.34078 6.58027ZM10.4031 9.81735L9.5361 10.6844C9.51347 10.6617 9.48525 10.6248 9.4637 10.5755L10.5871 10.084L11.7104 9.59257C11.603 9.34711 11.4522 9.13236 11.2702 8.95032L10.4031 9.81735ZM10.5871 10.084L9.50515 10.6611C9.4539 10.565 9.43446 10.4662 9.43446 10.3875H10.6606H11.8868C11.8868 10.0881 11.8183 9.78704 11.669 9.50702L10.5871 10.084ZM10.6606 10.3875H9.43446C9.43446 10.3314 9.44619 10.2517 9.48526 10.166C9.52404 10.081 9.57418 10.0242 9.6091 9.99331L10.4215 10.9117L11.234 11.8301C11.6501 11.4619 11.8868 10.9556 11.8868 10.3875H10.6606ZM10.4215 10.9117L9.6091 9.99331C9.64336 9.963 9.68884 9.93486 9.74015 9.91643C9.78977 9.89859 9.82458 9.89705 9.83297 9.89705V11.1232V12.3494C10.3346 12.3494 10.8285 12.1888 11.234 11.8301L10.4215 10.9117ZM9.83297 11.1232V9.89705C9.85547 9.89705 9.91237 9.90156 9.9847 9.93272C10.059 9.9647 10.1149 10.01 10.1499 10.0491L9.23521 10.8657L8.32057 11.6824C8.72317 12.1333 9.26432 12.3494 9.83297 12.3494V11.1232ZM9.23521 10.8657L10.1428 10.0413L7.13566 6.73064L6.22803 7.55507L5.3204 8.3795L8.32758 11.6902L9.23521 10.8657ZM6.22803 7.55507L5.32416 6.72652L2.28939 10.0372L3.19327 10.8657L4.09714 11.6943L7.13191 8.38362L6.22803 7.55507ZM3.19327 10.8657L2.29474 10.0314C2.31863 10.0056 2.36518 9.96608 2.4351 9.93548C2.50518 9.90482 2.56705 9.89705 2.6047 9.89705V11.1232V12.3494C3.18078 12.3494 3.70185 12.12 4.09179 11.7001L3.19327 10.8657Z" fill="black" mask="url(#path-1-outside-1_305_784)"/>
</svg>
