<svg width="100" height="25" viewBox="0 0 100 25" fill="none" xmlns="http://www.w3.org/2000/svg">
<path d="M29.7212 17.0703C29.406 17.0703 29.2483 16.8902 29.2483 16.5299V11.2602C29.2483 10.6897 29.3459 10.2862 29.5411 10.0498C29.74 9.81331 30.0778 9.69508 30.5545 9.69508H34.3266C34.7094 9.69508 34.9008 9.85272 34.9008 10.168C34.9008 10.4833 34.7094 10.6409 34.3266 10.6409H30.6333C30.4569 10.6409 30.3387 10.6709 30.2786 10.731C30.2223 10.791 30.1942 10.9149 30.1942 11.1026V16.5299C30.1942 16.8902 30.0365 17.0703 29.7212 17.0703ZM38.6248 16.9915C37.9041 16.9915 37.3299 16.9277 36.902 16.8001C36.4779 16.6687 36.172 16.4529 35.9843 16.1526C35.8004 15.8486 35.7085 15.4376 35.7085 14.9197V13.7374C35.7085 13.2194 35.8004 12.8103 35.9843 12.5101C36.172 12.206 36.4779 11.9902 36.902 11.8626C37.3299 11.7312 37.9041 11.6656 38.6248 11.6656H38.9513C39.6719 11.6656 40.2443 11.7312 40.6684 11.8626C41.0926 11.994 41.3966 12.2117 41.5805 12.5157C41.7644 12.816 41.8564 13.2232 41.8564 13.7374V14.3454H36.6543V14.8859C36.6543 15.2162 36.6993 15.4658 36.7894 15.6347C36.8832 15.7998 37.0709 15.9106 37.3524 15.9669C37.6339 16.0194 38.058 16.0457 38.6248 16.0457H40.3588C40.5352 16.0457 40.6516 16.0138 40.7079 15.95C40.7679 15.8862 40.7979 15.7604 40.7979 15.5728C40.7979 15.3851 40.8392 15.2387 40.9218 15.1336C41.0081 15.0285 41.1264 14.976 41.2765 14.976C41.4304 14.9797 41.5467 15.0379 41.6255 15.1505C41.7044 15.2594 41.7438 15.4151 41.7438 15.6178C41.7438 15.9293 41.6969 16.1883 41.603 16.3947C41.5092 16.5974 41.3647 16.7475 41.1695 16.8451C40.9781 16.9427 40.7341 16.9915 40.4376 16.9915H38.6248ZM36.6599 13.3996H40.9049C40.8636 13.0693 40.7304 12.8591 40.5052 12.769C40.3701 12.7165 40.1693 12.6771 39.9028 12.6508C39.64 12.6245 39.3229 12.6114 38.9513 12.6114H38.6248C38.2194 12.6114 37.8835 12.6264 37.617 12.6564C37.3543 12.6827 37.161 12.724 37.0371 12.7803C36.8119 12.8741 36.6862 13.0806 36.6599 13.3996ZM45.9591 16.9915C45.2385 16.9915 44.6642 16.9277 44.2364 16.8001C43.8122 16.6687 43.5063 16.4529 43.3187 16.1526C43.1348 15.8486 43.0428 15.4376 43.0428 14.9197V13.7374C43.0428 13.2194 43.1348 12.8103 43.3187 12.5101C43.5063 12.206 43.8122 11.9902 44.2364 11.8626C44.6642 11.7312 45.2385 11.6656 45.9591 11.6656H46.2857C47.0063 11.6656 47.5787 11.7312 48.0028 11.8626C48.4269 11.994 48.7309 12.2117 48.9148 12.5157C49.0988 12.816 49.1907 13.2232 49.1907 13.7374V14.9197C49.1907 15.4339 49.0988 15.843 48.9148 16.147C48.7309 16.4473 48.4269 16.6631 48.0028 16.7945C47.5787 16.9258 47.0063 16.9915 46.2857 16.9915H45.9591ZM45.9591 16.0457H46.2857C46.8487 16.0457 47.269 16.0194 47.5468 15.9669C47.8283 15.9106 48.0141 15.7998 48.1041 15.6347C48.198 15.4658 48.2449 15.2162 48.2449 14.8859V13.7712C48.2449 13.4371 48.198 13.1875 48.1041 13.0224C48.0141 12.8572 47.8283 12.7484 47.5468 12.6958C47.269 12.6395 46.8487 12.6114 46.2857 12.6114H45.9591C45.3924 12.6114 44.9682 12.6395 44.6867 12.6958C44.4052 12.7484 44.2176 12.8572 44.1238 13.0224C44.0337 13.1875 43.9886 13.4371 43.9886 13.7712V14.8859C43.9886 15.2162 44.0337 15.4658 44.1238 15.6347C44.2176 15.7998 44.4052 15.9106 44.6867 15.9669C44.9682 16.0194 45.3924 16.0457 45.9591 16.0457ZM51.0627 17.0703C50.7474 17.0703 50.5898 16.8902 50.5898 16.5299V12.1385C50.5898 11.7707 50.7399 11.5867 51.0402 11.5867C51.2241 11.5867 51.3855 11.6825 51.5243 11.8739L53.6074 14.7902L55.7018 11.8739C55.8369 11.6825 55.9945 11.5867 56.1747 11.5867C56.4825 11.5867 56.6363 11.7707 56.6363 12.1385V16.5299C56.6363 16.8902 56.4787 17.0703 56.1634 17.0703C55.8482 17.0703 55.6905 16.8789 55.6905 16.4961V13.2194L53.9734 15.6628C53.8983 15.7679 53.7838 15.8205 53.6299 15.8205C53.5586 15.8205 53.4873 15.8092 53.416 15.7867C53.3484 15.7642 53.294 15.7229 53.2527 15.6628L51.5356 13.2194V16.4961C51.5356 16.8789 51.378 17.0703 51.0627 17.0703ZM60.9467 16.9915C60.2261 16.9915 59.6518 16.9277 59.2239 16.8001C58.7998 16.6687 58.4939 16.4529 58.3062 16.1526C58.1223 15.8486 58.0304 15.4376 58.0304 14.9197V13.7374C58.0304 13.2194 58.1223 12.8103 58.3062 12.5101C58.4939 12.206 58.7998 11.9902 59.2239 11.8626C59.6518 11.7312 60.2261 11.6656 60.9467 11.6656H61.2732C61.9939 11.6656 62.5663 11.7312 62.9904 11.8626C63.4145 11.994 63.7185 12.2117 63.9024 12.5157C64.0863 12.816 64.1783 13.2232 64.1783 13.7374V14.3454H58.9762V14.8859C58.9762 15.2162 59.0213 15.4658 59.1113 15.6347C59.2052 15.7998 59.3928 15.9106 59.6743 15.9669C59.9558 16.0194 60.3799 16.0457 60.9467 16.0457H62.6807C62.8571 16.0457 62.9735 16.0138 63.0298 15.95C63.0898 15.8862 63.1199 15.7604 63.1199 15.5728C63.1199 15.3851 63.1612 15.2387 63.2437 15.1336C63.33 15.0285 63.4483 14.976 63.5984 14.976C63.7523 14.9797 63.8686 15.0379 63.9475 15.1505C64.0263 15.2594 64.0657 15.4151 64.0657 15.6178C64.0657 15.9293 64.0188 16.1883 63.9249 16.3947C63.8311 16.5974 63.6866 16.7475 63.4914 16.8451C63.3 16.9427 63.0561 16.9915 62.7595 16.9915H60.9467ZM58.9818 13.3996H63.2268C63.1855 13.0693 63.0523 12.8591 62.8271 12.769C62.692 12.7165 62.4912 12.6771 62.2247 12.6508C61.962 12.6245 61.6448 12.6114 61.2732 12.6114H60.9467C60.5413 12.6114 60.2054 12.6264 59.9389 12.6564C59.6762 12.6827 59.4829 12.724 59.359 12.7803C59.1339 12.8741 59.0081 13.0806 58.9818 13.3996ZM67.5829 17.0703C67.2376 17.0703 67.065 16.9014 67.065 16.5636V12.6114H65.4435C65.0757 12.6114 64.8918 12.4538 64.8918 12.1385C64.8918 11.8232 65.0757 11.6656 65.4435 11.6656H69.7336C70.1014 11.6656 70.2853 11.8232 70.2853 12.1385C70.2853 12.4538 70.1014 12.6114 69.7336 12.6114H68.1234V16.5636C68.1234 16.7175 68.0746 16.8395 67.977 16.9296C67.8794 17.0234 67.7481 17.0703 67.5829 17.0703ZM71.658 19.0408C71.3502 19.0408 71.1963 18.8494 71.1963 18.4666V12.1272C71.1963 11.7669 71.3577 11.5867 71.6805 11.5867C71.8494 11.5867 71.9657 11.6393 72.0295 11.7444C72.0971 11.8495 72.1309 12.0296 72.1309 12.2849V12.6227L71.962 12.3975C72.1984 12.1385 72.4968 11.9527 72.8572 11.8401C73.2212 11.7237 73.6397 11.6656 74.1126 11.6656H74.4392C75.1598 11.6656 75.7322 11.7312 76.1563 11.8626C76.5804 11.994 76.8845 12.2117 77.0684 12.5157C77.2523 12.816 77.3442 13.2232 77.3442 13.7374V14.9197C77.3442 15.4339 77.2523 15.843 77.0684 16.147C76.8845 16.4473 76.5823 16.6631 76.1619 16.7945C75.7453 16.9258 75.1823 16.9915 74.473 16.9915H72.1421V18.4666C72.1421 18.8494 71.9808 19.0408 71.658 19.0408ZM72.1421 16.0457H74.473C75.0284 16.0457 75.4432 16.0194 75.7172 15.9669C75.9912 15.9106 76.1732 15.7998 76.2633 15.6347C76.3534 15.4658 76.3984 15.2162 76.3984 14.8859V13.7712C76.3984 13.4371 76.3515 13.1875 76.2576 13.0224C76.1676 12.8572 75.9818 12.7484 75.7003 12.6958C75.4225 12.6395 75.0022 12.6114 74.4392 12.6114H74.1126C73.4333 12.6114 72.9341 12.7503 72.6151 13.028C72.2998 13.302 72.1421 13.7299 72.1421 14.3116V16.0457ZM83.9754 17.0703C83.6602 17.0703 83.5025 16.8752 83.5025 16.4848V13.0055L79.6347 16.9915H78.7508V12.1385C78.7508 11.7707 78.9085 11.5867 79.2238 11.5867C79.539 11.5867 79.6967 11.7819 79.6967 12.1723V15.6966L83.5982 11.6656H84.4484V16.5186C84.4484 16.8864 84.2907 17.0703 83.9754 17.0703ZM86.4696 17.0703C86.3307 17.0703 86.2181 17.0215 86.1318 16.924C86.0492 16.8264 86.008 16.7025 86.008 16.5524V12.1047C86.008 11.9471 86.053 11.8213 86.1431 11.7275C86.2332 11.6337 86.3533 11.5867 86.5034 11.5867C86.6385 11.5867 86.7474 11.6355 86.8299 11.7331C86.9125 11.827 86.9538 11.9508 86.9538 12.1047V13.85H88.0347C88.1098 13.85 88.1999 13.7937 88.305 13.6811C88.4138 13.5685 88.5677 13.3639 88.7666 13.0674C88.9205 12.846 89.095 12.6227 89.2902 12.3975C89.4891 12.1723 89.7425 11.979 90.0503 11.8176C90.3618 11.6562 90.7071 11.5755 91.0862 11.5755C91.2626 11.5755 91.4033 11.6168 91.5084 11.6993C91.6173 11.7819 91.6717 11.8983 91.6717 12.0484C91.6717 12.206 91.621 12.3243 91.5197 12.4031C91.4221 12.4819 91.2776 12.5213 91.0862 12.5213C90.891 12.5213 90.6996 12.5964 90.5119 12.7465C90.328 12.8966 90.1028 13.1613 89.8363 13.5403C89.7688 13.6342 89.7031 13.7224 89.6393 13.805C89.5792 13.8838 89.5211 13.957 89.4648 14.0245C89.4122 14.0883 89.3597 14.1465 89.3071 14.199C89.5999 14.3267 89.8645 14.5031 90.1009 14.7283C90.3411 14.9535 90.5025 15.1824 90.5851 15.4151C90.6752 15.6478 90.7634 15.8242 90.8497 15.9443C90.936 16.0644 91.0149 16.1245 91.0862 16.1245C91.2626 16.1245 91.4033 16.1677 91.5084 16.254C91.6173 16.3403 91.6717 16.4548 91.6717 16.5974C91.6717 16.9127 91.4765 17.0703 91.0862 17.0703C90.8234 17.0703 90.5964 17.0309 90.405 16.9521C90.2135 16.8733 90.0615 16.7532 89.9489 16.5918C89.8363 16.4379 89.7444 16.2878 89.6731 16.1414C89.6017 15.995 89.5192 15.8468 89.4253 15.6966C89.3315 15.5427 89.1945 15.387 89.0144 15.2293C88.7028 14.9403 88.1661 14.7958 87.4042 14.7958H86.9538V16.5636C86.9538 16.7175 86.9106 16.8395 86.8243 16.9296C86.738 17.0234 86.6197 17.0703 86.4696 17.0703ZM95.6172 16.9915C94.8965 16.9915 94.3223 16.9277 93.8944 16.8001C93.4703 16.6687 93.1644 16.4529 92.9767 16.1526C92.7928 15.8486 92.7008 15.4376 92.7008 14.9197V13.7374C92.7008 13.2194 92.7928 12.8103 92.9767 12.5101C93.1644 12.206 93.4703 11.9902 93.8944 11.8626C94.3223 11.7312 94.8965 11.6656 95.6172 11.6656H97.2048C97.5013 11.6656 97.7453 11.7162 97.9367 11.8176C98.1319 11.9152 98.2764 12.0672 98.3702 12.2736C98.464 12.4763 98.511 12.7353 98.511 13.0505C98.511 13.2532 98.4697 13.409 98.3871 13.5178C98.3083 13.6267 98.1919 13.6811 98.038 13.6811C97.8879 13.6811 97.7716 13.6304 97.689 13.5291C97.6064 13.424 97.5651 13.2795 97.5651 13.0956C97.5651 12.9079 97.5351 12.7803 97.475 12.7127C97.415 12.6452 97.2986 12.6114 97.126 12.6114H95.6172C95.0504 12.6114 94.6263 12.6395 94.3448 12.6958C94.0633 12.7484 93.8756 12.8572 93.7818 13.0224C93.6917 13.1875 93.6467 13.4371 93.6467 13.7712V14.8859C93.6467 15.2162 93.6917 15.4658 93.7818 15.6347C93.8756 15.7998 94.0633 15.9106 94.3448 15.9669C94.6263 16.0194 95.0504 16.0457 95.6172 16.0457H97.126C97.3024 16.0457 97.4187 16.0138 97.475 15.95C97.5351 15.8862 97.5651 15.7604 97.5651 15.5728C97.5651 15.3964 97.6045 15.2537 97.6834 15.1449C97.7622 15.0323 97.8766 14.976 98.0268 14.976C98.1732 14.976 98.2895 15.0304 98.3758 15.1393C98.4659 15.2443 98.511 15.4039 98.511 15.6178C98.511 15.9293 98.464 16.1883 98.3702 16.3947C98.2764 16.5974 98.1319 16.7475 97.9367 16.8451C97.7453 16.9427 97.5013 16.9915 97.2048 16.9915H95.6172Z" fill="#33334D"/>
<path d="M12.3496 24.5084C11.9778 24.501 11.6618 24.3613 11.3993 24.1053C10.8639 23.5822 10.331 23.0562 9.79649 22.5319C8.87086 21.6241 7.94393 20.7177 7.01962 19.8086C6.10745 18.9115 5.1989 18.0106 4.28607 17.1138C3.24659 16.0926 2.20416 15.0743 1.16337 14.0543C0.989141 13.8837 0.812942 13.7143 0.644945 13.5378C0.0881288 12.9533 0.117003 12.125 0.697116 11.56C1.66047 10.6215 2.61628 9.6756 3.57635 8.7339C4.23817 8.08476 4.90425 7.43919 5.56442 6.78811C6.47528 5.88973 7.38154 4.9865 8.29206 4.0878C9.11367 3.27638 9.93856 2.46787 10.7618 1.65807C10.9666 1.45635 11.1749 1.25786 11.3731 1.05032C11.9083 0.489758 12.8004 0.458077 13.3569 0.997299C13.9491 1.57111 14.5299 2.15688 15.1166 2.73619C15.8962 3.50623 16.6791 4.27336 17.4557 5.04631C17.922 5.51021 18.3892 5.97314 18.8522 6.43994C19.0921 6.68175 19.3405 6.92033 19.5921 7.15309C20.0213 7.55039 20.4311 7.96806 20.8488 8.37733C21.55 9.06461 22.2512 9.75189 22.9521 10.4395C23.3547 10.8345 23.7678 11.2202 24.1559 11.6288C24.6484 12.147 24.6543 13.0212 24.1221 13.5491C22.9051 14.7565 21.6767 15.9533 20.4538 17.1549C19.7611 17.8357 19.0701 18.5181 18.3778 19.1989C17.4646 20.0967 16.5501 20.9931 15.6376 21.8915C14.9105 22.6072 14.1824 23.322 13.4616 24.0432C13.1528 24.3519 12.7932 24.5194 12.3496 24.5077V24.5084ZM14.9853 12.5899C14.9853 12.5883 14.9853 12.5867 14.9853 12.5851C15.7397 12.5851 16.494 12.5857 17.2487 12.5838C17.3101 12.5838 17.3941 12.6096 17.4236 12.5333C17.4528 12.4583 17.3911 12.4027 17.3409 12.3526C16.8543 11.8664 16.37 11.3776 15.8798 10.895C14.8288 9.86019 13.7733 8.82991 12.7226 7.79479C12.4838 7.55944 12.344 7.55589 12.1061 7.79317C11.4374 8.45976 10.771 9.12829 10.0954 9.78778C9.59141 10.2798 9.09038 10.7751 8.58409 11.2651C8.2225 11.6149 7.87371 11.9793 7.51114 12.329C7.41599 12.4208 7.4219 12.4978 7.45372 12.599C7.49277 12.7228 7.61516 12.7661 7.69817 12.8476C8.47548 13.6124 9.25312 14.377 10.0311 15.1412C10.7431 15.8408 11.4558 16.54 12.1685 17.2389C12.3437 17.4109 12.468 17.4119 12.6468 17.2464C12.6826 17.2131 12.7164 17.1778 12.7512 17.1432C13.4448 16.4556 14.1358 15.7654 14.8344 15.083C14.9358 14.9838 14.926 14.932 14.8318 14.8412C14.1247 14.1601 13.4263 13.4666 12.7234 12.781C12.6713 12.7302 12.6424 12.7302 12.6743 12.6572C12.7048 12.5873 12.7308 12.5915 12.804 12.5912C13.5311 12.5886 14.2582 12.5896 14.9853 12.5896V12.5899Z" fill="#AEDDF8"/>
<path d="M12.3496 24.5084C11.9778 24.501 11.6618 24.3613 11.3993 24.1053C10.8639 23.5822 10.331 23.0562 9.79649 22.5319C8.87086 21.6241 7.94393 20.7177 7.01962 19.8086C6.10745 18.9115 5.1989 18.0106 4.28607 17.1138C3.24659 16.0926 2.20416 15.0743 1.16337 14.0543C0.989141 13.8837 0.812942 13.7143 0.644945 13.5378C0.0881288 12.9533 0.117003 12.125 0.697116 11.56C1.66047 10.6215 2.61628 9.6756 3.57635 8.7339C4.23817 8.08476 4.90425 7.43919 5.56442 6.78811C6.47528 5.88973 7.38154 4.9865 8.29206 4.0878C9.11367 3.27638 9.93856 2.46787 10.7618 1.65807C10.9666 1.45635 11.1749 1.25786 11.3731 1.05032C11.9083 0.489758 12.8004 0.458077 13.3569 0.997299C13.9491 1.57111 14.5299 2.15688 15.1166 2.73619C15.8962 3.50623 16.6791 4.27336 17.4557 5.04631C17.922 5.51021 18.3892 5.97314 18.8522 6.43994C19.0921 6.68175 19.3405 6.92033 19.5921 7.15309C20.0213 7.55039 20.4311 7.96806 20.8488 8.37733C21.55 9.06461 22.2512 9.75189 22.9521 10.4395C23.3547 10.8345 23.7678 11.2202 24.1559 11.6288C24.6484 12.147 24.6543 13.0212 24.1221 13.5491C22.9051 14.7565 21.6767 15.9533 20.4538 17.1549C19.7611 17.8357 19.0701 18.5181 18.3778 19.1989C17.4646 20.0967 16.5501 20.9931 15.6376 21.8915C14.9105 22.6072 14.1824 23.322 13.4616 24.0432C13.1528 24.3519 12.7932 24.5194 12.3496 24.5077V24.5084ZM7.25357 14.2771C7.25291 14.4146 7.25291 14.5277 7.25357 14.6537C7.25357 14.7332 7.25357 14.8124 7.2539 14.892C7.25291 14.948 7.25291 14.9803 7.25357 15.0413C7.25357 15.1422 7.25357 15.243 7.25357 15.3436C7.25291 15.4814 7.2539 15.5622 7.25357 15.6882C7.25357 15.7347 7.25324 15.7813 7.25291 15.8278C7.25357 15.9986 7.25291 16.0956 7.25291 16.2377C7.25291 16.2736 7.25291 16.3095 7.25291 16.3454C7.25291 16.4997 7.2562 16.6367 7.25291 16.8196C7.24963 17.0026 7.25193 17.1859 7.24077 17.3686C7.24405 17.4857 7.27195 17.5247 7.39663 17.5244C8.8013 17.5211 10.2063 17.5241 11.611 17.5234C11.6612 17.5234 11.7193 17.5454 11.7156 17.5383C10.2358 16.057 8.75635 14.5758 7.25291 13.0713V14.2771H7.25357ZM12.9628 17.5244C13.0626 17.5244 13.1101 17.5244 13.1581 17.5244C14.2458 17.5231 15.3338 17.5218 16.4215 17.5211C16.8425 17.5211 17.2635 17.5218 17.6841 17.5241C17.7274 17.5241 17.7871 17.5017 17.7924 17.5822C17.7973 17.6598 17.7514 17.6715 17.69 17.6708C17.6572 17.6705 17.6244 17.6715 17.5916 17.6715C15.9464 17.6728 14.3009 17.6744 12.6557 17.675C10.8517 17.6757 9.04805 17.6689 7.24405 17.6786C6.75024 17.6812 6.34501 17.8803 6.09039 18.3242C6.03888 18.414 6.02739 18.4855 6.12189 18.5443C6.25675 18.6287 6.34862 18.7573 6.4592 18.865C7.46521 19.8452 8.46465 20.8321 9.46574 21.8171C10.1732 22.5135 10.8786 23.2111 11.5877 23.9058C11.7908 24.1049 12.0359 24.2246 12.3259 24.243C12.7817 24.2721 13.1003 24.0367 13.4025 23.7338C14.3714 22.7627 15.3505 21.8013 16.3283 20.8386C17.4528 19.731 18.5802 18.6264 19.7057 17.5198C21.0982 16.1511 22.4822 14.774 23.8865 13.4172C24.317 13.0014 24.3403 12.1629 23.92 11.7704C23.2857 11.1782 22.6745 10.5617 22.0543 9.95491C21.3407 9.25696 20.625 8.56095 19.9183 7.85653C19.8136 7.75212 19.7145 7.70847 19.5685 7.7088C17.5132 7.71203 15.4575 7.70944 13.4022 7.71074C13.2647 7.71074 13.1246 7.70039 12.951 7.73951C13.431 8.20696 13.8888 8.65211 14.3462 9.09823C15.5031 10.2258 16.6597 11.354 17.8173 12.4813C17.9095 12.5712 17.9128 12.6433 17.8163 12.738C16.5134 14.0207 15.2131 15.3061 13.9121 16.5904C13.6082 16.8904 13.3037 17.1891 12.9628 17.5247V17.5244ZM14.9853 12.5899C14.9853 12.5883 14.993 12.5912 14.993 12.5896C15.7474 12.5896 16.494 12.5857 17.2487 12.5838C17.3101 12.5838 17.3883 12.5881 17.4236 12.5333C17.4528 12.4583 17.3911 12.4027 17.3409 12.3526C16.8543 11.8664 16.37 11.3776 15.8798 10.895C14.8288 9.86019 13.7733 8.82991 12.7226 7.79479C12.4838 7.55944 12.344 7.55589 12.1061 7.79317C11.4374 8.45976 10.771 9.12829 10.0954 9.78778C9.59141 10.2798 9.09038 10.7751 8.58409 11.2651C8.2225 11.6149 7.87371 11.9793 7.51114 12.329C7.41599 12.4208 7.4219 12.4978 7.45372 12.599C7.49277 12.7228 7.61516 12.7661 7.69817 12.8476C8.47548 13.6124 9.25312 14.377 10.0311 15.1412C10.7431 15.8408 11.4558 16.54 12.1685 17.2389C12.3437 17.4109 12.468 17.4119 12.6468 17.2464C12.6826 17.2131 12.7164 17.1778 12.7512 17.1432C13.4448 16.4556 14.1358 15.7654 14.8344 15.083C14.9358 14.9838 14.926 14.932 14.8318 14.8412C14.1247 14.1601 13.4219 13.4747 12.719 12.7891C12.6669 12.7383 12.5456 12.6136 12.5536 12.5937C12.5737 12.5869 12.7308 12.5915 12.804 12.5912C13.5311 12.5886 14.2582 12.5896 14.9853 12.5896V12.5899ZM12.7427 12.696C12.7794 12.7425 12.799 12.7617 12.8167 12.7789C13.5232 13.4668 14.2293 14.1497 14.9325 14.8412C15.0198 14.9269 15.0539 14.8774 15.1077 14.8241C15.6472 14.2907 16.1863 13.7566 16.7267 13.2239C16.8979 13.0551 17.0728 12.8893 17.2733 12.696H12.7427Z" fill="#FF6A3D"/>
<path d="M14.6369 5.42725C13.9455 5.75861 13.2539 6.09029 12.5625 6.42165C12.4273 6.4863 12.298 6.49083 12.156 6.42197C11.5391 6.12326 10.9177 5.83296 10.2988 5.53846C10.2552 5.51777 10.2168 5.48641 10.1758 5.4599C10.3136 5.22036 10.4488 4.9792 10.5941 4.74353C11.0295 4.0375 11.4676 3.33341 11.9119 2.63287C12.0044 2.48675 12.0976 2.34031 12.2108 2.20841C12.3305 2.06908 12.4949 2.08136 12.5799 2.24138C12.7755 2.60895 13.037 2.93545 13.2453 3.29526C13.3552 3.48502 13.4734 3.67058 13.5915 3.85549C13.8409 4.24504 14.0784 4.6417 14.3314 5.02898C14.4236 5.16993 14.4843 5.33156 14.6365 5.42661L14.6369 5.42725Z" fill="#E66831"/>
<path d="M14.6373 5.42853C14.492 5.41107 14.4103 5.32023 14.342 5.2003C14.1258 4.82077 13.8827 4.45741 13.6379 4.09502C13.5204 3.9211 13.4226 3.73393 13.3173 3.55192C13.128 3.22509 12.9318 2.90279 12.6995 2.60246C12.6335 2.51744 12.5853 2.41917 12.5295 2.32671C12.4426 2.18318 12.3556 2.17057 12.2519 2.29988C12.1574 2.41788 12.0718 2.54363 11.9914 2.67197C11.5012 3.45429 11.0136 4.23823 10.5263 5.0225C10.4952 5.0726 10.4729 5.12853 10.4522 5.18381C10.4026 5.31829 10.3167 5.41592 10.1762 5.46183C10.0732 5.40849 10.1346 5.34124 10.1677 5.28596C10.3446 4.98888 10.5231 4.69243 10.7055 4.3989C11.1993 3.60461 11.6958 2.81195 12.1912 2.01863C12.2057 1.99568 12.2201 1.97273 12.2355 1.95074C12.3362 1.80624 12.3737 1.80333 12.4672 1.94816C12.7106 2.3251 12.9521 2.70333 13.191 3.08317C13.6395 3.79729 14.0861 4.51269 14.532 5.22842C14.5717 5.29243 14.6022 5.36193 14.6373 5.42885V5.42853Z" fill="#FF7C42"/>
<path d="M10.1209 19.6954C10.8123 19.3641 11.504 19.0324 12.1953 18.701C12.3305 18.6364 12.4598 18.6319 12.6018 18.7007C13.2187 18.9994 13.8402 19.2897 14.459 19.5842C14.5026 19.6049 14.541 19.6363 14.582 19.6628C14.4442 19.9023 14.309 20.1435 14.1637 20.3792C13.7283 21.0852 13.2902 21.7893 12.846 22.4898C12.7534 22.6359 12.6602 22.7824 12.547 22.9143C12.4273 23.0536 12.2629 23.0413 12.1779 22.8813C11.9824 22.5137 11.7208 22.1872 11.5125 21.8274C11.4026 21.6377 11.2844 21.4521 11.1663 21.2672C10.917 20.8776 10.6794 20.481 10.4264 20.0937C10.3342 19.9528 10.2735 19.7911 10.1213 19.6961L10.1209 19.6954Z" fill="#A3CEE7"/>
<path d="M10.1205 19.6961C10.2658 19.7136 10.3475 19.8044 10.4158 19.9243C10.632 20.3039 10.8751 20.6672 11.1199 21.0296C11.2374 21.2035 11.3352 21.3907 11.4405 21.5727C11.6298 21.8995 11.826 22.2218 12.0583 22.5222C12.1243 22.6072 12.1725 22.7055 12.2283 22.7979C12.3153 22.9415 12.4022 22.9541 12.5059 22.8248C12.6004 22.7068 12.686 22.581 12.7664 22.4527C13.2566 21.6703 13.7442 20.8864 14.2315 20.1021C14.2626 20.052 14.285 19.9961 14.3056 19.9408C14.3552 19.8063 14.4411 19.7087 14.5816 19.6628C14.6846 19.7161 14.6232 19.7834 14.5901 19.8387C14.4132 20.1358 14.2347 20.4322 14.0523 20.7257C13.5585 21.52 13.0621 22.3127 12.5666 23.106C12.5522 23.129 12.5377 23.1519 12.5223 23.1739C12.4216 23.3184 12.3842 23.3213 12.2906 23.1765C12.0472 22.7995 11.8057 22.4213 11.5668 22.0415C11.1183 21.3273 10.6717 20.6119 10.2258 19.8962C10.1861 19.8322 10.1556 19.7627 10.1205 19.6958L10.1205 19.6961Z" fill="#97CAE7"/>
<path d="M5.1325 10.333C5.46883 11.0141 5.80548 11.6956 6.1418 12.3767C6.20742 12.5099 6.21201 12.6373 6.14212 12.7773C5.83894 13.385 5.54429 13.9973 5.24538 14.607C5.22438 14.65 5.19255 14.6878 5.16565 14.7282C4.92251 14.5924 4.67773 14.4592 4.43854 14.316C3.72193 13.8871 3.00728 13.4555 2.29625 13.0178C2.14794 12.9266 1.99931 12.8348 1.86543 12.7233C1.72401 12.6053 1.73648 12.4433 1.8989 12.3596C2.27197 12.1669 2.60337 11.9093 2.96857 11.704C3.16117 11.5957 3.34951 11.4793 3.5372 11.3629C3.93258 11.1172 4.33518 10.8832 4.72826 10.6339C4.87132 10.5431 5.03538 10.4833 5.13185 10.3333L5.1325 10.333Z" fill="#E66831"/>
<path d="M5.13157 10.3332C5.11386 10.4764 5.02166 10.5569 4.89992 10.6241C4.51471 10.8372 4.14591 11.0767 3.77809 11.3179C3.60156 11.4336 3.41158 11.5299 3.22685 11.6337C2.89512 11.8202 2.56799 12.0136 2.26317 12.2424C2.17687 12.3074 2.07712 12.3549 1.98328 12.4099C1.8376 12.4956 1.8248 12.5812 1.95605 12.6834C2.07581 12.7765 2.20345 12.8609 2.33371 12.9401C3.12776 13.423 3.92344 13.9034 4.71946 14.3835C4.77032 14.4142 4.82708 14.4362 4.88319 14.4565C5.01969 14.5053 5.11878 14.59 5.16537 14.7284C5.11123 14.8299 5.04298 14.7695 4.98687 14.7368C4.68533 14.5626 4.38445 14.3867 4.08652 14.207C3.28033 13.7204 2.47579 13.2313 1.67059 12.7432C1.64729 12.729 1.62399 12.7147 1.60168 12.6995C1.45501 12.6003 1.45206 12.5634 1.59906 12.4713C1.98164 12.2314 2.36554 11.9935 2.75108 11.7582C3.47589 11.3162 4.20202 10.8763 4.92847 10.4369C4.99344 10.3978 5.06398 10.3678 5.1319 10.3332L5.13157 10.3332Z" fill="#FF7C42"/>
<path d="M19.678 14.7935C19.3417 14.1124 19.0051 13.4309 18.6688 12.7498C18.6031 12.6166 18.5985 12.4892 18.6684 12.3492C18.9716 11.7415 19.2663 11.1292 19.5652 10.5195C19.5862 10.4765 19.618 10.4387 19.6449 10.3983C19.888 10.534 20.1328 10.6672 20.372 10.8104C21.0886 11.2394 21.8033 11.671 22.5143 12.1087C22.6626 12.1999 22.8112 12.2917 22.9451 12.4032C23.0865 12.5212 23.0741 12.6832 22.9116 12.7669C22.5386 12.9596 22.2072 13.2172 21.842 13.4225C21.6494 13.5308 21.461 13.6472 21.2734 13.7635C20.878 14.0092 20.4754 14.2433 20.0823 14.4925C19.9392 14.5834 19.7752 14.6432 19.6787 14.7932L19.678 14.7935Z" fill="#A3CEE7"/>
<path d="M19.679 14.7915C19.6967 14.6483 19.7889 14.5678 19.9106 14.5006C20.2958 14.2875 20.6646 14.048 21.0325 13.8068C21.209 13.6911 21.399 13.5948 21.5837 13.491C21.9154 13.3045 22.2426 13.1111 22.5474 12.8823C22.6337 12.8173 22.7334 12.7698 22.8273 12.7148C22.9729 12.6291 22.9857 12.5435 22.8545 12.4413C22.7347 12.3482 22.6071 12.2638 22.4768 12.1846C21.6828 11.7017 20.8871 11.2213 20.0911 10.7412C20.0402 10.7105 19.9835 10.6885 19.9274 10.6682C19.7909 10.6193 19.6918 10.5346 19.6452 10.3963C19.6993 10.2948 19.7676 10.3552 19.8237 10.3879C20.1252 10.5621 20.4261 10.738 20.724 10.9177C21.5302 11.4043 22.3348 11.8934 23.14 12.3815C23.1633 12.3957 23.1866 12.41 23.2089 12.4252C23.3555 12.5244 23.3585 12.5613 23.2115 12.6534C22.8289 12.8933 22.445 13.1312 22.0595 13.3665C21.3347 13.8084 20.6085 14.2484 19.8821 14.6878C19.8171 14.7269 19.7466 14.7569 19.6786 14.7915L19.679 14.7915Z" fill="#97CAE7"/>
</svg>
